<svg version="1.1" xmlns="http://www.w3.org/2000/svg" style="display: block;" viewBox="0 0 1152 2048" width="576" height="1024" preserveAspectRatio="none">
<path transform="translate(0,0)" fill="rgb(21,62,97)" d="M 264.057 396.284 C 272.714 386.143 281.071 371.421 291.232 360.264 C 296.552 354.422 317.657 333.373 319.802 329.566 C 328.651 313.86 321.033 299.275 338.888 282.516 C 354.56 267.807 377.641 277.631 390.007 270.787 C 402.579 263.829 419.288 250.83 433.808 242.456 C 447.707 234.439 468.744 224.895 481.225 216.345 C 486.898 212.459 494.73 193.204 503.447 186.275 C 531.249 164.175 551.75 184.105 577.87 183.568 C 591.266 183.292 608.168 174.433 625.565 175.913 C 657.512 178.629 657.652 206.054 673.514 216.891 C 696.187 232.381 741.088 250.248 759.806 271.512 C 775.656 274.436 790.633 272.578 805.724 275.503 C 831.563 295.185 824.537 305.047 833.736 331.017 C 833.614 330.673 857.731 356.229 860.011 358.754 C 870.954 370.881 880.044 384.394 890.144 396.901 C 900.604 398.604 912.717 400.164 921.928 406.462 C 953.294 427.946 931.433 472.132 942.175 501.952 C 948.471 519.432 951.904 536.474 955.511 554.586 C 956.749 554.92 957.977 555.293 959.193 555.703 C 1001.19 569.792 994.481 596.301 989.357 632.38 C 986.227 654.414 976.405 667.843 955.919 677.324 C 951.794 694.406 948.137 704.093 942.467 720.733 C 971.508 729.801 985.526 745.689 979.143 777.581 C 965.77 844.408 941.288 855.574 877.273 840.35 C 841.639 850.218 815.51 879.976 805.708 915.017 C 806.077 915.45 806.435 915.892 806.807 916.322 C 832.584 946.138 856.565 1052.92 865.489 1095.66 C 870.832 1121.25 878.691 1155.42 868.698 1180.56 C 864.639 1190.77 857.772 1200.03 851.77 1209.19 C 864.787 1210.79 907.264 1223.32 918.72 1229.89 C 936.346 1240 951.954 1260.34 956.927 1280.29 C 963.386 1307.25 959.081 1335.66 944.925 1359.5 C 966.664 1378.43 974.349 1391.81 975.185 1420.83 C 975.899 1445.65 970.949 1460.05 960.572 1482.32 C 967.307 1493.35 968.598 1496.99 972.981 1508.97 C 997.828 1522.84 1066.97 1539.1 1079.14 1559.69 C 1080.01 1563.37 1080.3 1617.77 1079.18 1623.24 C 1076.7 1629.9 1070.91 1635.51 1064.83 1638.95 C 1056.04 1643.94 1045.85 1647.18 1036.43 1650.85 C 1019.89 1657.38 1003.26 1663.7 986.558 1669.8 C 950.856 1682.91 915.231 1696.86 879.769 1710.63 L 688.31 1784.3 L 633.806 1805.52 C 623.315 1809.63 612.529 1814.67 601.577 1817.34 C 585.169 1821.33 562.785 1819.81 546.627 1815.15 C 511.55 1805.04 470.792 1787.46 436.425 1774.04 L 275.225 1711.6 L 155.805 1665.82 C 135.15 1657.92 113.062 1650.79 93.2322 1641.16 C 85.9825 1637.64 78.3959 1633.05 74.4716 1625.72 C 71.927 1620.97 73.2458 1616.51 74.7612 1611.74 C 75.7619 1605.41 75.1504 1576.79 75.1096 1569.22 C 73.9585 1566.68 71.8089 1559.78 73.303 1557.75 C 83.6164 1543.75 114.874 1534.37 129.956 1528.78 C 146.038 1522.7 162.086 1516.52 178.098 1510.25 C 183.02 1498.09 185.754 1492.49 192.36 1481.02 C 187.208 1469.3 182.002 1460.88 179.453 1447.95 C 172.316 1411.73 178.22 1383.88 206.918 1359.64 C 175.736 1296.03 195.458 1232.91 267.211 1217.64 C 278.671 1215.2 289.473 1211.53 301.7 1209.32 C 290.684 1193.51 282.583 1179.93 280.36 1160.49 C 276.063 1122.91 312.811 983.924 328.652 946.279 C 333.727 934.218 339.806 924.207 347.958 913.989 C 336.025 877.168 312.972 852.407 276.025 840.358 C 235.192 851.097 196.802 854.1 180.587 803.724 C 167.787 763.955 163.794 735.861 210.902 721.131 C 204.466 707.257 201.647 694.005 197.928 679.236 C 186.833 672.035 169 660.948 166.881 646.824 C 160.304 602.998 145.108 570.503 196.975 554.652 C 201.904 533.878 209.238 510.672 213.407 490.102 C 217.602 469.409 207.313 437.462 220.197 417.443 C 230.116 402.032 248.065 399.717 264.057 396.284 z M 446.202 1238.52 C 446.263 1235.85 446.968 1231.26 444.996 1229.2 C 444.775 1228.97 444.494 1228.81 444.243 1228.62 C 444.043 1231.57 443.469 1234.66 444.766 1237.41 L 446.202 1238.52 z"/>
<path transform="translate(0,0)" fill="rgb(246,245,244)" d="M 264.057 396.284 C 272.714 386.143 281.071 371.421 291.232 360.264 C 296.552 354.422 317.657 333.373 319.802 329.566 C 328.651 313.86 321.033 299.275 338.888 282.516 C 354.56 267.807 377.641 277.631 390.007 270.787 C 402.579 263.829 419.288 250.83 433.808 242.456 C 447.707 234.439 468.744 224.895 481.225 216.345 C 486.898 212.459 494.73 193.204 503.447 186.275 C 531.249 164.175 551.75 184.105 577.87 183.568 C 591.266 183.292 608.168 174.433 625.565 175.913 C 657.512 178.629 657.652 206.054 673.514 216.891 C 696.187 232.381 741.088 250.248 759.806 271.512 C 775.656 274.436 790.633 272.578 805.724 275.503 C 831.563 295.185 824.537 305.047 833.736 331.017 C 833.614 330.673 857.731 356.229 860.011 358.754 C 870.954 370.881 880.044 384.394 890.144 396.901 C 900.604 398.604 912.717 400.164 921.928 406.462 C 953.294 427.946 931.433 472.132 942.175 501.952 C 948.471 519.432 951.904 536.474 955.511 554.586 C 956.749 554.92 957.977 555.293 959.193 555.703 C 1001.19 569.792 994.481 596.301 989.357 632.38 C 986.227 654.414 976.405 667.843 955.919 677.324 C 951.794 694.406 948.137 704.093 942.467 720.733 C 971.508 729.801 985.526 745.689 979.143 777.581 C 965.77 844.408 941.288 855.574 877.273 840.35 C 841.639 850.218 815.51 879.976 805.708 915.017 C 806.077 915.45 806.435 915.892 806.807 916.322 C 832.584 946.138 856.565 1052.92 865.489 1095.66 C 870.832 1121.25 878.691 1155.42 868.698 1180.56 C 864.639 1190.77 857.772 1200.03 851.77 1209.19 C 864.787 1210.79 907.264 1223.32 918.72 1229.89 C 936.346 1240 951.954 1260.34 956.927 1280.29 C 963.386 1307.25 959.081 1335.66 944.925 1359.5 C 966.664 1378.43 974.349 1391.81 975.185 1420.83 C 975.899 1445.65 970.949 1460.05 960.572 1482.32 C 967.307 1493.35 968.598 1496.99 972.981 1508.97 C 997.828 1522.84 1066.97 1539.1 1079.14 1559.69 C 1079.52 1565.88 1080.76 1568.64 1075.68 1572.69 C 1075.3 1569.49 1074.41 1566.38 1073.03 1563.48 C 1065.96 1548.51 1040.54 1542.24 1025.73 1536.69 C 1006.56 1529.32 987.33 1522.11 968.042 1515.05 C 964.113 1500.71 960.837 1493.34 951.562 1481.54 C 972.746 1454.11 976.841 1406.71 955.522 1378.4 C 949.929 1370.97 943.715 1366.57 936.207 1361.44 C 960.978 1324.61 961.445 1270.81 924.78 1241.2 C 911.152 1230.2 895.518 1226.6 879.031 1221.98 L 840.59 1211.23 C 852.574 1199.06 861.296 1186.56 864.801 1169.54 C 866.514 1161.13 867.088 1152.52 866.508 1143.95 C 865.391 1125.67 859.04 1096.59 855.164 1078.44 C 845.735 1034.27 834.008 988.945 817.347 946.948 C 812.402 934.482 806.102 925.06 798.831 913.978 C 810.693 872.511 837.259 847.63 877.098 833.507 C 913.23 844.764 953.573 848.764 966.792 802.362 C 970.883 788.003 977.231 769.008 973.991 754.45 C 970.046 736.719 950.174 730.025 935.898 722.061 C 936.474 719.386 937.347 716.78 938.369 714.246 C 943.676 701.099 946.789 688.112 949.798 674.315 C 977.521 663.684 983.433 640.932 986.15 614.333 C 989.745 579.142 984.127 569.582 950.533 559.201 C 945.878 531.905 941.309 514.964 931.398 489.739 C 931.949 487.338 932.4 484.916 932.751 482.478 C 933.674 475.986 933.416 469.923 933.495 463.474 C 934.023 420.452 931.98 408.758 886.396 402.299 C 867.943 376.692 849.659 355.186 828.147 332.314 C 822.959 326.797 823.678 303.446 816.766 293.421 C 802.035 272.057 780.466 280.865 758.057 275.441 C 747.012 264.38 704.195 239.095 689.415 232.972 C 654.295 218.424 666.053 210.809 642.748 187.432 C 625.59 170.221 588.452 192.78 572.083 189.011 C 532.781 179.96 511.985 170.075 490.771 214.823 C 486.244 224.015 444.909 241.539 432.97 249.182 C 422.537 255.86 402.951 269.727 391.625 275.831 C 373.817 280.233 337.525 273.772 332.791 300.621 C 327.103 332.883 326.992 332.326 303.016 355.449 C 292.239 365.843 276.483 388.547 267.206 402.05 C 255.517 403.865 243.569 404.825 233.179 412.09 C 214.664 425.036 220.065 454.318 219.103 474.14 C 219.175 478.861 221.563 486.295 220.156 490.899 C 213.043 514.168 206.525 535.176 202.62 559.332 C 153.947 571.104 164.894 599.479 170.934 638.399 C 173.727 656.395 188.628 666.848 202.869 675.243 C 209.206 696.841 208.787 699.875 217.923 721.982 C 206.101 729.794 190.323 732.497 182.234 746.062 C 174.974 758.238 178.262 772.584 181.501 785.274 C 186.412 804.514 192.506 824.999 211.259 835.33 C 231.402 846.427 255.531 839.317 275.895 833.723 C 315.219 845.427 342.745 874.55 353.988 913.817 C 350.157 920.157 341.792 931.341 339.028 937.79 C 318.328 986.092 305.577 1038.73 295.224 1090.14 C 291.852 1106.88 287.521 1126.17 286.137 1142.96 C 283.578 1174.01 293.021 1188.85 312.321 1211.2 C 293.194 1216.7 250.173 1226.82 235.182 1236.01 C 218.103 1246.59 205.906 1263.5 201.259 1283.04 C 194.584 1311.03 201.56 1337.79 216.461 1361.67 C 194.726 1374.44 183.78 1395.05 182.883 1420.1 C 182.225 1438.46 188.087 1467.34 201.103 1481.05 C 191.313 1493.47 188.612 1500.38 184.096 1515.2 C 158.397 1522.95 113.116 1541.03 88.1798 1552.63 C 84.0193 1554.56 77.8596 1564.87 75.1096 1569.22 C 73.9585 1566.68 71.8089 1559.78 73.303 1557.75 C 83.6164 1543.75 114.874 1534.37 129.956 1528.78 C 146.038 1522.7 162.086 1516.52 178.098 1510.25 C 183.02 1498.09 185.754 1492.49 192.36 1481.02 C 187.208 1469.3 182.002 1460.88 179.453 1447.95 C 172.316 1411.73 178.22 1383.88 206.918 1359.64 C 175.736 1296.03 195.458 1232.91 267.211 1217.64 C 278.671 1215.2 289.473 1211.53 301.7 1209.32 C 290.684 1193.51 282.583 1179.93 280.36 1160.49 C 276.063 1122.91 312.811 983.924 328.652 946.279 C 333.727 934.218 339.806 924.207 347.958 913.989 C 336.025 877.168 312.972 852.407 276.025 840.358 C 235.192 851.097 196.802 854.1 180.587 803.724 C 167.787 763.955 163.794 735.861 210.902 721.131 C 204.466 707.257 201.647 694.005 197.928 679.236 C 186.833 672.035 169 660.948 166.881 646.824 C 160.304 602.998 145.108 570.503 196.975 554.652 C 201.904 533.878 209.238 510.672 213.407 490.102 C 217.602 469.409 207.313 437.462 220.197 417.443 C 230.116 402.032 248.065 399.717 264.057 396.284 z"/>
<path transform="translate(0,0)" fill="rgb(246,245,244)" d="M 1075.17 1614.41 C 1075.3 1614.25 1075.44 1614.09 1075.56 1613.92 C 1078 1610.58 1077.33 1606.35 1077.6 1602.43 L 1079.18 1623.24 C 1076.7 1629.9 1070.91 1635.51 1064.83 1638.95 C 1056.04 1643.94 1045.85 1647.18 1036.43 1650.85 C 1019.89 1657.38 1003.26 1663.7 986.558 1669.8 C 950.856 1682.91 915.231 1696.86 879.769 1710.63 L 688.31 1784.3 L 633.806 1805.52 C 623.315 1809.63 612.529 1814.67 601.577 1817.34 C 585.169 1821.33 562.785 1819.81 546.627 1815.15 C 511.55 1805.04 470.792 1787.46 436.425 1774.04 L 275.225 1711.6 L 155.805 1665.82 C 135.15 1657.92 113.062 1650.79 93.2322 1641.16 C 85.9825 1637.64 78.3959 1633.05 74.4716 1625.72 C 71.927 1620.97 73.2458 1616.51 74.7612 1611.74 C 78.8698 1619.91 82.6176 1629.14 90.968 1633.86 C 107.174 1643.01 136.432 1652.18 155.031 1659.32 L 279.914 1707.44 L 432.336 1765.98 C 468.433 1780.1 504.936 1795.52 541.742 1807.62 C 560.381 1813.75 584.081 1814.42 603.155 1809.99 C 623.75 1805.21 644.07 1794.99 663.856 1787.43 C 709.108 1770.32 754.266 1752.97 799.33 1735.38 L 974.714 1667.58 C 1002.89 1656.81 1033.5 1648.21 1060.45 1634.67 C 1066.97 1631.39 1072.24 1624.32 1074.42 1617.43 C 1074.73 1616.44 1074.97 1615.43 1075.17 1614.41 z"/>
<path transform="translate(0,0)" fill="rgb(205,225,225)" d="M 1079.14 1559.69 C 1080.01 1563.37 1080.3 1617.77 1079.18 1623.24 L 1077.6 1602.43 C 1077.33 1606.35 1078 1610.58 1075.56 1613.92 C 1075.44 1614.09 1075.3 1614.25 1075.17 1614.41 C 1076.44 1602.95 1075.79 1584.56 1075.68 1572.69 C 1080.76 1568.64 1079.52 1565.88 1079.14 1559.69 z"/>
<path transform="translate(0,0)" fill="rgb(234,182,99)" d="M 496.318 853.093 C 512.814 862.2 521.598 862.898 539.327 866.747 C 556.63 870.503 576.956 878.299 594.738 871.692 C 616.064 863.769 636.573 865.161 656.366 853.094 C 657.462 855.496 659.273 859.779 660.483 861.93 C 664.31 867.224 667.393 870.765 673.743 873.061 C 702.467 883.447 732.686 886.291 760.607 899.532 C 797.176 916.874 809.041 954.57 820.166 990.674 C 826.28 1010.07 831.692 1029.69 836.392 1049.48 C 842.937 1077.13 848.846 1104.44 853.29 1132.51 C 859.724 1173.15 845.137 1193 815.036 1217.39 C 834.598 1220.91 863.344 1229.66 882.972 1235.46 C 924.948 1246.84 942.013 1267.38 941.013 1311.34 C 939.391 1326.77 936.578 1341.14 926.712 1353.83 C 898.322 1390.34 831.073 1393.72 788.073 1399.12 C 649.844 1416.46 508.268 1413.71 369.371 1407.67 C 359.564 1407.24 349.434 1403.72 343.213 1395.9 C 310.112 1389.34 274.855 1389.07 244.925 1371.75 C 224.87 1360.14 212.608 1335.4 211.668 1312.58 C 209.262 1298.68 213.086 1279.97 220.336 1268.15 C 232.464 1248.37 246.976 1241.5 267.897 1235.8 C 289.703 1228.52 315.506 1223.19 337.69 1216.75 C 292.971 1185.13 293.231 1154.79 304.326 1105.44 C 317.299 1047.74 327.695 984.874 356.17 932.325 C 375.132 897.333 420.978 888.87 456.067 880.02 C 470.951 876.258 483.352 875.288 492.57 861.493 L 496.318 853.093 z M 446.202 1238.52 C 446.263 1235.85 446.968 1231.26 444.996 1229.2 C 444.775 1228.97 444.494 1228.81 444.243 1228.62 C 444.043 1231.57 443.469 1234.66 444.766 1237.41 L 446.202 1238.52 z"/>
<path transform="translate(0,0)" fill="rgb(194,124,41)" d="M 715.403 1164.52 L 719.907 1179.01 C 714.838 1184.95 690.42 1209.87 689.881 1214.44 C 692.758 1217.93 696.228 1219.35 696.91 1222.47 C 695.33 1225.64 696.202 1224.5 692.916 1226.72 C 689.297 1227.17 687.461 1225.9 684.772 1223.78 C 680.587 1220.48 678.638 1218.17 673.459 1216.5 C 653.638 1209.85 635.007 1220.35 616.184 1224.59 C 609.14 1226.17 589.134 1223.49 585.573 1226.8 C 571.424 1239.97 588.094 1244.81 597.771 1245.99 C 612.761 1247.81 619.374 1245.69 633.753 1246.71 C 634.723 1247.68 635.537 1248.5 636.195 1249.16 C 636.974 1256.7 624.559 1256.14 618.671 1258.85 C 600.061 1267.4 581.909 1276.13 561.117 1277.56 C 546.887 1279.13 518.859 1272.11 510.99 1279.68 C 508.404 1295.32 559.546 1297.4 570.388 1298.43 C 576.693 1299.03 586.563 1297.34 592.869 1296.36 C 617.006 1256.29 640.18 1275.25 679.458 1267.73 C 708.829 1262.11 728.155 1249.81 758.787 1250.83 C 770.962 1244.25 782.912 1237.27 794.616 1229.88 C 798.172 1227.67 811.977 1218.68 815.036 1217.39 C 834.598 1220.91 863.344 1229.66 882.972 1235.46 C 924.948 1246.84 942.013 1267.38 941.013 1311.34 C 939.391 1326.77 936.578 1341.14 926.712 1353.83 C 898.322 1390.34 831.073 1393.72 788.073 1399.12 C 649.844 1416.46 508.268 1413.71 369.371 1407.67 C 359.564 1407.24 349.434 1403.72 343.213 1395.9 C 310.112 1389.34 274.855 1389.07 244.925 1371.75 C 224.87 1360.14 212.608 1335.4 211.668 1312.58 C 209.262 1298.68 213.086 1279.97 220.336 1268.15 C 232.464 1248.37 246.976 1241.5 267.897 1235.8 C 289.703 1228.52 315.506 1223.19 337.69 1216.75 C 343.491 1219.66 359.184 1231.43 366.963 1235.99 C 413.557 1263.3 446.318 1277.71 499.755 1287.94 C 501.75 1273.91 504.806 1270.95 517.948 1265.46 C 528.43 1266 539.23 1268 550.099 1268.49 C 569.71 1269.36 584.661 1262.41 603.085 1257.47 C 594.641 1255.12 591.154 1256.02 582.829 1252.11 C 563.535 1256.85 550.143 1252.87 532.485 1246.66 C 532.253 1246.57 524.817 1246.36 523.347 1246.16 C 520.912 1244.65 520.476 1244.45 519.494 1241.8 C 523.291 1232.51 563.968 1239.59 571.834 1227.9 C 574.142 1224.47 574.016 1218.74 570.543 1216.66 C 561.074 1210.99 544.497 1216.29 534.358 1214 C 518.284 1210.37 503.624 1204.81 486.885 1209.3 C 474.06 1211.95 468.743 1223.41 461.707 1224.4 L 460.264 1223.09 C 459.575 1218.04 460.664 1216.17 462.565 1211.33 C 451.908 1201.23 441.92 1189.57 432.439 1178.34 L 437.134 1166.45 C 441.11 1172.93 464.146 1197.61 471.003 1205.47 C 499.182 1190.72 513.614 1201.16 541.764 1204.87 C 558.366 1207.06 570.832 1196.68 582.91 1216.31 C 591.368 1215.75 606.687 1216.5 614.613 1214.79 C 640.738 1209.17 651.38 1199.24 679.324 1208.21 C 690.044 1196.53 708.628 1177.75 715.403 1164.52 z"/>
<path transform="translate(0,0)" fill="rgb(234,182,99)" d="M 267.897 1235.8 C 277.663 1237.81 288.602 1238.59 297.815 1241.07 C 366.69 1259.65 534.988 1321.67 599.124 1304.38 C 605.364 1294.34 610.3 1284.14 622.437 1281.99 C 643.224 1278.32 661.214 1281.01 682.761 1277.07 C 694.055 1274.9 705.181 1271.93 716.059 1268.19 C 742.901 1259.22 745.916 1255.37 772.113 1265.89 C 776.603 1267.69 799.617 1253.86 806.935 1260.83 C 811.998 1263.83 813.932 1273.66 809.16 1278.25 C 794.711 1292.15 770.279 1280.74 753.072 1284.59 C 727.241 1290.38 702.722 1303.01 676.774 1308.91 C 663.031 1312.61 640.532 1311.14 629.9 1315.53 C 609.465 1323.96 594.028 1338.45 569.652 1340.33 C 557.677 1341.25 545.587 1341 533.673 1342.17 C 511.496 1346.64 489.876 1353.88 467.23 1356.72 C 447.354 1359.22 427.31 1356.22 407.806 1359.12 C 398.78 1360.47 392.999 1363.75 385.415 1368.28 C 340.441 1363.81 279.748 1359.08 239.754 1336.66 C 228.281 1330.22 220.443 1322.08 211.668 1312.58 C 209.262 1298.68 213.086 1279.97 220.336 1268.15 C 232.464 1248.37 246.976 1241.5 267.897 1235.8 z"/>
<path transform="translate(0,0)" fill="rgb(234,182,99)" d="M 882.972 1235.46 C 924.948 1246.84 942.013 1267.38 941.013 1311.34 C 937.912 1313.3 928.889 1324.94 924.452 1328.74 C 918.201 1334.1 914.084 1338.13 905.914 1341.78 C 884.92 1351.16 861.98 1356.6 839.725 1361.75 C 779.101 1375.77 715.866 1383.01 653.902 1388.11 C 630.767 1390.02 608.007 1392.55 584.694 1392.77 C 567.874 1392.94 556.715 1378.36 541.812 1379.39 C 526.26 1380.47 508.876 1387.02 493.145 1388.92 C 466.777 1392.12 439.865 1391.36 413.418 1393.14 C 398.264 1394.15 382.793 1399.58 367.319 1398.87 C 361.557 1398.42 354.293 1399.49 350.138 1394.62 C 346.072 1389.85 348.081 1384.09 353.14 1381.09 C 362.644 1375.44 374.547 1379.08 384.545 1381.27 C 393.937 1374.4 404.957 1367.39 416.554 1367.66 C 456.57 1368.59 491.955 1365.38 530.22 1352.99 C 549.389 1346.78 559.403 1353 575.688 1363.07 C 602.325 1361.75 639.029 1349.17 664.763 1341.14 C 698.377 1330.71 731.248 1318.47 764.355 1306.51 C 779.916 1300.05 798.947 1296.47 813.214 1287.69 C 826.652 1279.41 822.59 1265.91 815.827 1255.46 C 840.188 1244.31 858.247 1241.73 882.972 1235.46 z"/>
<path transform="translate(0,0)" fill="rgb(194,124,41)" d="M 414.011 979.702 C 418.503 991.173 428.135 1027.76 431.495 1040.73 C 427.225 1048.44 418.196 1077.03 415.476 1086.21 C 410.276 1103.77 402.651 1124.4 397.922 1141.89 C 387.8 1134.24 381.73 1130.81 370.435 1125.05 C 385.537 1080.28 400.168 1025.58 414.011 979.702 z"/>
<path transform="translate(0,0)" fill="rgb(194,124,41)" d="M 738.481 979.925 C 743.07 992.036 746.527 1005.31 750.12 1017.79 C 760.487 1053.78 771.628 1089.42 781.82 1125.48 C 772.118 1130.26 760.666 1139.11 755.627 1141.51 C 749.536 1126.07 726.412 1048.38 721.256 1041.67 C 726.52 1022.26 732.398 998.704 738.481 979.925 z"/>
<path transform="translate(0,0)" fill="rgb(21,62,97)" d="M 721.256 1041.67 C 726.412 1048.38 749.536 1126.07 755.627 1141.51 C 743.216 1153.89 731.383 1165.75 719.907 1179.01 L 715.403 1164.52 C 701.097 1113.57 706.131 1091.61 721.256 1041.67 z"/>
<path transform="translate(0,0)" fill="rgb(21,62,97)" d="M 397.922 1141.89 C 402.651 1124.4 410.276 1103.77 415.476 1086.21 C 418.196 1077.03 427.225 1048.44 431.495 1040.73 C 445.586 1091.7 451.759 1113.02 437.134 1166.45 L 432.439 1178.34 C 421.67 1165.94 409.302 1153.95 397.922 1141.89 z"/>
<path transform="translate(0,0)" fill="rgb(194,124,41)" d="M 496.318 853.093 C 512.814 862.2 521.598 862.898 539.327 866.747 C 556.63 870.503 576.956 878.299 594.738 871.692 C 616.064 863.769 636.573 865.161 656.366 853.094 C 657.462 855.496 659.273 859.779 660.483 861.93 C 629.933 893.527 579.434 901.72 538.355 889.518 C 522.599 884.838 502.544 874.884 492.57 861.493 L 496.318 853.093 z"/>
<path transform="translate(0,0)" fill="rgb(194,124,41)" d="M 570.027 1039.14 C 586.212 1037.15 599.699 1047.55 614.35 1052.85 C 622.768 1055.9 631.261 1057.38 640.174 1057.91 C 648.204 1058.44 656.268 1057.85 664.138 1056.18 C 671.206 1054.63 683.373 1047.54 689.921 1048.72 C 692.23 1049.13 692.416 1049.87 693.626 1051.7 C 693.819 1054.51 693.253 1056.76 692.05 1059.27 C 688.449 1066.77 682.283 1070.34 674.66 1073.02 C 642.494 1084.31 610.28 1072.51 581.289 1058.61 C 578.831 1057.77 575.832 1057.52 573.339 1058.23 C 567.346 1059.92 561.265 1063.32 555.559 1065.84 C 540.118 1072.66 524.792 1077.03 507.817 1077.28 C 492.801 1077.5 475.687 1075.66 464.542 1064.58 C 461.452 1061.51 458.536 1057.76 458.551 1053.22 C 459.638 1051.07 460.607 1049.22 463.264 1048.82 C 465.592 1048.46 492.545 1057.35 499.826 1058.04 C 525.6 1060.47 547.218 1049.17 570.027 1039.14 z"/>
<path transform="translate(0,0)" fill="rgb(234,182,99)" fill-opacity="0.894118" d="M 444.243 1228.62 C 444.494 1228.81 444.775 1228.97 444.996 1229.2 C 446.968 1231.26 446.263 1235.85 446.202 1238.52 L 444.766 1237.41 C 443.469 1234.66 444.043 1231.57 444.243 1228.62 z"/>
<path transform="translate(0,0)" fill="rgb(29,96,152)" d="M 213.33 1378.45 C 216.695 1375.83 220.248 1372.95 223.669 1370.45 C 311.026 1452.78 841.013 1452.42 928.909 1370.49 C 932.63 1373.25 936.819 1376.16 940.108 1379.36 C 947.009 1385.88 951.35 1391.91 954.228 1401.12 C 957.578 1411.83 960.582 1432.18 952.873 1441.71 C 961.652 1455.61 937.466 1476.83 937.008 1482.18 L 943.638 1490.87 C 956.158 1508.73 966.361 1538.64 948.634 1556.3 C 951.239 1561.1 950.897 1564.54 947.986 1570.02 C 932.234 1599.66 893.556 1606.46 864.298 1615.83 C 856.248 1618.41 839.713 1616.98 831.54 1619.17 C 788.379 1630.77 743.597 1630.01 699.288 1631.31 C 678 1632.93 656.056 1637.82 634.608 1637.47 C 589.327 1635.81 542.038 1639.18 497.016 1634.91 C 447.85 1630.23 398.728 1632.15 349.978 1624.86 C 340.99 1623.52 332.064 1620.99 323.149 1619.69 C 285.49 1614.17 238.392 1609.08 211.337 1579.33 C 205.549 1572.95 199.571 1561.9 200.37 1553.01 C 196.504 1546.91 195.318 1542.37 194.812 1535.07 C 193.622 1518.75 198.981 1502.64 209.704 1490.28 L 217.085 1482.21 C 210.124 1473.59 196.074 1454.7 200.71 1443.43 C 186.147 1425.83 198.211 1393 213.33 1378.45 z"/>
<path transform="translate(0,0)" fill="rgb(29,96,152)" d="M 209.704 1490.28 C 223.44 1511 226.073 1507.41 244.104 1517.77 L 254.695 1521.73 C 290.261 1532.56 326.726 1540.19 363.653 1544.51 C 376.564 1546.02 389.494 1547.38 402.438 1548.58 C 406.608 1548.96 420.877 1549.93 424.333 1550.77 C 428.456 1551.39 432.975 1552.23 437.101 1552.1 C 549.112 1561.24 661.748 1559.37 773.394 1546.52 C 809.885 1542.1 855.271 1535.28 890.123 1523.73 L 899.514 1520.53 C 923.587 1512.06 927.079 1510.11 943.638 1490.87 C 956.158 1508.73 966.361 1538.64 948.634 1556.3 C 951.239 1561.1 950.897 1564.54 947.986 1570.02 C 932.234 1599.66 893.556 1606.46 864.298 1615.83 C 856.248 1618.41 839.713 1616.98 831.54 1619.17 C 788.379 1630.77 743.597 1630.01 699.288 1631.31 C 678 1632.93 656.056 1637.82 634.608 1637.47 C 589.327 1635.81 542.038 1639.18 497.016 1634.91 C 447.85 1630.23 398.728 1632.15 349.978 1624.86 C 340.99 1623.52 332.064 1620.99 323.149 1619.69 C 285.49 1614.17 238.392 1609.08 211.337 1579.33 C 205.549 1572.95 199.571 1561.9 200.37 1553.01 C 196.504 1546.91 195.318 1542.37 194.812 1535.07 C 193.622 1518.75 198.981 1502.64 209.704 1490.28 z"/>
<path transform="translate(0,0)" fill="rgb(234,182,99)" d="M 437.101 1552.1 C 549.112 1561.24 661.748 1559.37 773.394 1546.52 C 809.885 1542.1 855.271 1535.28 890.123 1523.73 C 901.667 1542.81 902.405 1552.79 891.327 1573.04 C 887.513 1577.66 885.641 1581.18 882.707 1586.32 C 847.444 1596.72 804.417 1602.2 767.766 1605.39 C 749.405 1606.99 729.098 1606.83 711.159 1610.79 C 693.629 1612.61 675.688 1613.76 658.069 1614.09 C 633.281 1612.51 607.369 1614.59 582.491 1614.9 C 557.71 1615.22 532.976 1614.01 508.219 1614.19 C 491.512 1613.94 474.813 1612.87 458.118 1612.22 C 455.025 1610.72 451.629 1610.17 448.291 1609.46 C 432.774 1597.58 426.581 1582.48 433.269 1563.31 C 435.045 1558.22 438.019 1556.3 437.101 1552.1 z"/>
<path transform="translate(0,0)" fill="rgb(234,182,99)" d="M 209.704 1490.28 C 223.44 1511 226.073 1507.41 244.104 1517.77 L 254.695 1521.73 C 290.261 1532.56 326.726 1540.19 363.653 1544.51 C 376.564 1546.02 389.494 1547.38 402.438 1548.58 C 406.608 1548.96 420.877 1549.93 424.333 1550.77 C 428.456 1551.39 432.975 1552.23 437.101 1552.1 C 438.019 1556.3 435.045 1558.22 433.269 1563.31 C 426.581 1582.48 432.774 1597.58 448.291 1609.46 C 443.419 1610.05 438.017 1609.37 433.099 1609.18 C 423.793 1609.2 414.102 1608 404.777 1607.42 C 353.151 1603.12 299.154 1596.26 249.657 1580.48 L 241.592 1577.7 C 224.33 1571.19 213.581 1565.96 200.37 1553.01 C 196.504 1546.91 195.318 1542.37 194.812 1535.07 C 193.622 1518.75 198.981 1502.64 209.704 1490.28 z"/>
<path transform="translate(0,0)" fill="rgb(234,182,99)" d="M 209.704 1490.28 C 223.44 1511 226.073 1507.41 244.104 1517.77 C 227.058 1538.23 231.534 1555.77 241.592 1577.7 C 224.33 1571.19 213.581 1565.96 200.37 1553.01 C 196.504 1546.91 195.318 1542.37 194.812 1535.07 C 193.622 1518.75 198.981 1502.64 209.704 1490.28 z"/>
<path transform="translate(0,0)" fill="rgb(194,124,41)" d="M 424.333 1550.77 C 428.456 1551.39 432.975 1552.23 437.101 1552.1 C 438.019 1556.3 435.045 1558.22 433.269 1563.31 C 426.581 1582.48 432.774 1597.58 448.291 1609.46 C 443.419 1610.05 438.017 1609.37 433.099 1609.18 C 412.817 1596.68 409.371 1568.68 424.333 1550.77 z"/>
<path transform="translate(0,0)" fill="rgb(194,124,41)" d="M 244.104 1517.77 L 254.695 1521.73 C 246.573 1531.77 244.716 1536.22 245.015 1549.29 C 245.281 1560.87 256.015 1572.68 255.851 1576.8 C 253.753 1577.97 251.688 1579.2 249.657 1580.48 L 241.592 1577.7 C 231.534 1555.77 227.058 1538.23 244.104 1517.77 z"/>
<path transform="translate(0,0)" fill="rgb(234,182,99)" d="M 943.638 1490.87 C 956.158 1508.73 966.361 1538.64 948.634 1556.3 C 934.098 1568.5 921.31 1574.06 903.409 1580.52 L 902.209 1577.94 C 896.364 1576.98 895.145 1577.08 891.327 1573.04 C 902.405 1552.79 901.667 1542.81 890.123 1523.73 L 899.514 1520.53 C 923.587 1512.06 927.079 1510.11 943.638 1490.87 z"/>
<path transform="translate(0,0)" fill="rgb(194,124,41)" d="M 890.123 1523.73 L 899.514 1520.53 C 908.138 1533.29 913.704 1542.07 911.033 1558.78 C 910.115 1564.52 906.187 1573.66 902.209 1577.94 C 896.364 1576.98 895.145 1577.08 891.327 1573.04 C 902.405 1552.79 901.667 1542.81 890.123 1523.73 z"/>
<path transform="translate(0,0)" fill="rgb(21,62,97)" d="M 404.777 1607.42 C 414.102 1608 423.793 1609.2 433.099 1609.18 C 438.017 1609.37 443.419 1610.05 448.291 1609.46 C 451.629 1610.17 455.025 1610.72 458.118 1612.22 C 449.989 1614.49 440.348 1612.65 432.626 1615.78 C 426.142 1612.36 415.747 1620.11 408.895 1615.51 C 406.014 1613.58 405.413 1610.58 404.777 1607.42 z"/>
<path transform="translate(0,0)" fill="rgb(13,47,78)" d="M 458.118 1612.22 C 474.813 1612.87 491.512 1613.94 508.219 1614.19 C 501.94 1617.75 441.682 1617.39 432.626 1615.78 C 440.348 1612.65 449.989 1614.49 458.118 1612.22 z"/>
<path transform="translate(0,0)" fill="rgb(13,47,78)" d="M 658.069 1614.09 C 675.688 1613.76 693.629 1612.61 711.159 1610.79 C 709.574 1613.2 708.894 1615 705.866 1615.79 C 698.264 1617.77 664.59 1618.44 658.568 1614.47 C 658.394 1614.35 658.235 1614.21 658.069 1614.09 z"/>
<path transform="translate(0,0)" fill="rgb(218,153,41)" d="M 891.327 1573.04 C 895.145 1577.08 896.364 1576.98 902.209 1577.94 L 903.409 1580.52 C 896.576 1582.97 889.782 1584.72 882.707 1586.32 C 885.641 1581.18 887.513 1577.66 891.327 1573.04 z"/>
<path transform="translate(0,0)" fill="rgb(234,182,99)" d="M 213.33 1378.45 C 216.695 1375.83 220.248 1372.95 223.669 1370.45 C 311.026 1452.78 841.013 1452.42 928.909 1370.49 C 932.63 1373.25 936.819 1376.16 940.108 1379.36 C 935.616 1383.99 929.427 1390.46 924.289 1394.16 C 899.179 1412.23 857.247 1423.29 827.129 1429.55 C 823.009 1430.32 817.866 1431.42 813.79 1431.74 C 794.68 1435.87 774.312 1438.3 754.955 1441.34 C 752.415 1441.74 738.811 1442.68 737.293 1443.37 C 742.735 1446.49 744.667 1454.68 746.799 1460.25 C 754.069 1479.26 738.721 1489.46 733.933 1502.43 C 727.58 1503.51 714.962 1505.04 708.556 1504.9 C 689.907 1506.53 658.521 1508.22 639.569 1508.07 C 545.515 1514.51 437.765 1505.48 344.301 1493.12 C 340.21 1492.93 330.564 1491.37 326.175 1490.77 L 325.772 1489.99 C 322.026 1480.92 317.071 1475.25 316.021 1464.01 C 314.698 1449.84 318.344 1440.57 326.912 1429.8 C 285.698 1418.09 242.082 1414.49 213.33 1378.45 z"/>
<path transform="translate(0,0)" fill="rgb(249,203,108)" d="M 213.33 1378.45 C 216.695 1375.83 220.248 1372.95 223.669 1370.45 C 311.026 1452.78 841.013 1452.42 928.909 1370.49 C 932.63 1373.25 936.819 1376.16 940.108 1379.36 C 935.616 1383.99 929.427 1390.46 924.289 1394.16 C 899.179 1412.23 857.247 1423.29 827.129 1429.55 C 823.009 1430.32 817.866 1431.42 813.79 1431.74 C 794.68 1435.87 774.312 1438.3 754.955 1441.34 C 752.415 1441.74 738.811 1442.68 737.293 1443.37 C 733.634 1444.01 728.559 1445.04 724.994 1445.22 C 617.309 1457.59 487.909 1454.05 380.766 1439.02 C 372.078 1437.8 343.608 1433.94 337.344 1431.01 C 336.122 1430.58 330.688 1430.72 326.912 1429.8 C 285.698 1418.09 242.082 1414.49 213.33 1378.45 z"/>
<path transform="translate(0,0)" fill="rgb(194,124,41)" d="M 737.293 1443.37 C 742.735 1446.49 744.667 1454.68 746.799 1460.25 C 754.069 1479.26 738.721 1489.46 733.933 1502.43 C 727.58 1503.51 714.962 1505.04 708.556 1504.9 L 712.37 1501.59 C 735.776 1488.2 735.521 1466.97 724.994 1445.22 C 728.559 1445.04 733.634 1444.01 737.293 1443.37 z"/>
<path transform="translate(0,0)" fill="rgb(194,124,41)" d="M 326.912 1429.8 C 330.688 1430.72 336.122 1430.58 337.344 1431.01 C 326.715 1457.91 323.603 1468.7 344.301 1493.12 C 340.21 1492.93 330.564 1491.37 326.175 1490.77 L 325.772 1489.99 C 322.026 1480.92 317.071 1475.25 316.021 1464.01 C 314.698 1449.84 318.344 1440.57 326.912 1429.8 z"/>
<path transform="translate(0,0)" fill="rgb(204,172,113)" d="M 639.569 1508.07 C 652.934 1502.14 677.545 1507.93 691.968 1503.89 C 692.631 1503.71 696.2 1497.77 697.563 1496.47 C 698.196 1496.48 698.828 1496.5 699.461 1496.53 C 705.695 1496.79 708.225 1497.08 712.37 1501.59 L 708.556 1504.9 C 689.907 1506.53 658.521 1508.22 639.569 1508.07 z"/>
<path transform="translate(0,0)" fill="rgb(249,203,108)" d="M 217.085 1482.21 C 251.04 1519.83 426.961 1531.93 480.158 1535.67 C 572.209 1542.13 872.472 1538.06 937.008 1482.18 L 943.638 1490.87 C 927.079 1510.11 923.587 1512.06 899.514 1520.53 L 890.123 1523.73 C 855.271 1535.28 809.885 1542.1 773.394 1546.52 C 661.748 1559.37 549.112 1561.24 437.101 1552.1 C 432.975 1552.23 428.456 1551.39 424.333 1550.77 C 420.877 1549.93 406.608 1548.96 402.438 1548.58 C 389.494 1547.38 376.564 1546.02 363.653 1544.51 C 326.726 1540.19 290.261 1532.56 254.695 1521.73 L 244.104 1517.77 C 226.073 1507.41 223.44 1511 209.704 1490.28 L 217.085 1482.21 z"/>
<path transform="translate(0,0)" fill="rgb(234,182,99)" d="M 827.129 1429.55 C 857.247 1423.29 899.179 1412.23 924.289 1394.16 C 929.427 1390.46 935.616 1383.99 940.108 1379.36 C 947.009 1385.88 951.35 1391.91 954.228 1401.12 C 957.578 1411.83 960.582 1432.18 952.873 1441.71 C 923.257 1470.68 877.309 1479.59 837.906 1487.83 C 830.151 1489.95 822.483 1492.34 814.505 1493.23 C 790.427 1495.23 758.29 1499.11 733.933 1502.43 C 738.721 1489.46 754.069 1479.26 746.799 1460.25 C 744.667 1454.68 742.735 1446.49 737.293 1443.37 C 738.811 1442.68 752.415 1441.74 754.955 1441.34 C 774.312 1438.3 794.68 1435.87 813.79 1431.74 C 817.866 1431.42 823.009 1430.32 827.129 1429.55 z"/>
<path transform="translate(0,0)" fill="rgb(194,124,41)" d="M 813.79 1431.74 C 817.866 1431.42 823.009 1430.32 827.129 1429.55 C 830.479 1438.59 833.897 1447.94 832.88 1457.78 C 831.533 1470.81 827.719 1482.77 811.835 1478.86 L 811.332 1477.58 C 821.883 1455.56 824.065 1456.27 813.79 1431.74 z"/>
<path transform="translate(0,0)" fill="rgb(204,172,113)" d="M 814.505 1493.23 C 816.633 1478.89 827.976 1482.83 837.906 1487.83 C 830.151 1489.95 822.483 1492.34 814.505 1493.23 z"/>
<path transform="translate(0,0)" fill="rgb(234,182,99)" d="M 213.33 1378.45 C 242.082 1414.49 285.698 1418.09 326.912 1429.8 C 318.344 1440.57 314.698 1449.84 316.021 1464.01 C 317.071 1475.25 322.026 1480.92 325.772 1489.99 C 316.534 1487.73 308.661 1486.22 299.277 1484.58 C 265.406 1477.77 226.351 1467.5 200.71 1443.43 C 186.147 1425.83 198.211 1393 213.33 1378.45 z"/>
<path transform="translate(0,0)" fill="rgb(21,62,97)" d="M 299.277 1484.58 C 308.661 1486.22 316.534 1487.73 325.772 1489.99 L 326.175 1490.77 C 321.139 1496.25 309.254 1496.04 302.715 1493.53 C 300.271 1491.26 299.974 1487.89 299.277 1484.58 z"/>
<path transform="translate(0,0)" fill="rgb(249,203,108)" d="M 577.148 358.206 C 594.355 371.548 610.01 381.457 603.91 405.575 C 626.058 410.137 638.512 410.425 645.436 434.966 C 647.779 444.002 650.59 458.217 648.843 467.411 C 669.051 474.138 682.648 481.467 686.479 504.233 C 687.035 509.207 687.339 517.51 687.124 522.608 C 686.772 529.977 686.296 535.724 685.393 543.043 C 719.489 558.599 743.877 581.496 739.104 622.339 C 737.496 639.033 725.428 678.087 711.498 688.033 L 711.739 690.449 C 723.649 695.502 730.85 694.775 737.059 709.728 C 746.097 731.764 731.31 755.584 727.228 777.534 C 725.718 785.656 725.412 791.567 724.327 798.945 C 721.823 815.964 733.914 849.29 711.781 855.34 C 690.695 861.105 687.01 834.081 683.744 820.311 C 673.663 838.981 670.875 839.792 656.366 853.094 C 636.573 865.161 616.064 863.769 594.738 871.692 C 576.956 878.299 556.63 870.503 539.327 866.747 C 521.598 862.898 512.814 862.2 496.318 853.093 C 481.824 841.596 478.367 836.74 468.569 820.737 C 466.909 830.424 464.944 847.006 455.432 852.657 C 444.041 859.264 429.479 854.644 428.04 840.333 C 426.406 824.089 429.813 807.832 427.919 791.338 C 426.004 772.6 418.248 755.347 414.238 737.049 C 409.274 714.398 417.117 694.965 441.383 690.634 C 439.245 675.06 439.428 670.906 441.518 654.951 L 440.884 653.616 L 439.93 654.266 C 434.809 667.134 437.543 674.55 439.98 687.815 C 424.465 667.575 417 647.845 413.42 622.931 C 409.587 580.001 431.526 560.281 467.227 543.038 C 465.365 535.105 464.682 530.135 465.822 522.095 C 464.669 517.058 465.312 509.443 465.964 504.366 C 470.014 481.748 483.491 474.015 503.966 467.568 L 503.911 462.721 C 503.369 454.195 504.629 440.868 507.562 432.849 C 515.879 410.141 526.83 409.516 549.152 406.102 C 542.208 383.721 559.07 368.379 577.148 358.206 z"/>
<path transform="translate(0,0)" fill="rgb(29,96,152)" d="M 577.148 358.206 C 594.355 371.548 610.01 381.457 603.91 405.575 C 626.058 410.137 638.512 410.425 645.436 434.966 C 647.779 444.002 650.59 458.217 648.843 467.411 C 669.051 474.138 682.648 481.467 686.479 504.233 C 687.035 509.207 687.339 517.51 687.124 522.608 C 686.772 529.977 686.296 535.724 685.393 543.043 C 719.489 558.599 743.877 581.496 739.104 622.339 C 737.496 639.033 725.428 678.087 711.498 688.033 C 713.315 679.713 713.169 674.113 711.951 665.699 C 709.851 670.617 710.018 684.681 709.748 690.772 L 708.736 690.195 C 707.811 684.112 707.813 679.038 707.693 672.935 L 707.234 674.143 L 707.474 672.774 C 707.728 674.326 706.872 677.09 706.769 679.133 C 706.855 683.367 707.008 687.747 707.022 691.966 L 693.908 698.154 C 694.333 677.719 694.005 656.896 679.568 640.033 C 654.992 611.328 610.49 628.323 577.461 627.452 C 560.202 627.192 542.469 625.143 525.267 623.497 C 486.867 619.823 461.069 639.099 458.87 678.61 C 457.852 683.155 457.958 692.079 457.858 697.047 C 454.269 695.314 449.845 693.599 446.106 692.042 C 445.589 682.992 445.369 677.75 446.434 668.813 C 444.939 667.115 445.521 667.647 442.794 667.145 C 442.765 662.589 442.83 660.257 441.741 655.832 L 441.518 654.951 L 440.884 653.616 L 439.93 654.266 C 434.809 667.134 437.543 674.55 439.98 687.815 C 424.465 667.575 417 647.845 413.42 622.931 C 409.587 580.001 431.526 560.281 467.227 543.038 C 465.365 535.105 464.682 530.135 465.822 522.095 C 464.669 517.058 465.312 509.443 465.964 504.366 C 470.014 481.748 483.491 474.015 503.966 467.568 L 503.911 462.721 C 503.369 454.195 504.629 440.868 507.562 432.849 C 515.879 410.141 526.83 409.516 549.152 406.102 C 542.208 383.721 559.07 368.379 577.148 358.206 z"/>
<path transform="translate(0,0)" fill="rgb(29,125,147)" d="M 577.148 358.206 C 594.355 371.548 610.01 381.457 603.91 405.575 C 626.058 410.137 638.512 410.425 645.436 434.966 C 647.779 444.002 650.59 458.217 648.843 467.411 C 669.051 474.138 682.648 481.467 686.479 504.233 C 687.035 509.207 687.339 517.51 687.124 522.608 C 686.772 529.977 686.296 535.724 685.393 543.043 C 675.696 539.307 665.551 536.611 655.683 533.242 L 651.012 531.844 C 643.863 528.967 620.822 526.56 612.053 525.171 L 604.119 525.061 C 591.111 523.35 563.974 523.937 550.129 524.761 C 547.547 524.739 543.365 525.165 540.649 525.366 C 528.382 527.542 514.475 529.43 501.872 531.556 L 498.177 532.641 C 486.861 536.024 478.219 539.058 467.227 543.038 C 465.365 535.105 464.682 530.135 465.822 522.095 C 464.669 517.058 465.312 509.443 465.964 504.366 C 470.014 481.748 483.491 474.015 503.966 467.568 L 503.911 462.721 C 503.369 454.195 504.629 440.868 507.562 432.849 C 515.879 410.141 526.83 409.516 549.152 406.102 C 542.208 383.721 559.07 368.379 577.148 358.206 z"/>
<path transform="translate(0,0)" fill="rgb(51,137,96)" d="M 577.148 358.206 C 594.355 371.548 610.01 381.457 603.91 405.575 C 626.058 410.137 638.512 410.425 645.436 434.966 C 647.779 444.002 650.59 458.217 648.843 467.411 C 642.446 465.063 637.625 464.352 630.997 463.4 C 623.49 461.309 610.519 460.474 602.233 459.375 L 594.035 458.952 C 582.249 458.806 570.462 458.784 558.675 458.884 L 553.443 459.586 C 543.214 460.256 532.439 459.729 522.422 462.883 L 521.369 459.707 C 513.41 459.291 511.32 459.904 503.911 462.721 C 503.369 454.195 504.629 440.868 507.562 432.849 C 515.879 410.141 526.83 409.516 549.152 406.102 C 542.208 383.721 559.07 368.379 577.148 358.206 z"/>
<path transform="translate(0,0)" fill="rgb(218,153,41)" d="M 577.148 358.206 C 594.355 371.548 610.01 381.457 603.91 405.575 C 587.837 404.015 564.846 404.784 549.152 406.102 C 542.208 383.721 559.07 368.379 577.148 358.206 z"/>
<path transform="translate(0,0)" fill="rgb(249,203,108)" d="M 575.109 368.67 C 576.79 368.598 578.778 368.439 580.405 368.975 C 583.407 369.963 586.81 373.104 588.151 375.944 C 589.491 378.78 589.44 382.204 588.278 385.084 C 587.001 388.25 583.525 389.37 580.613 390.631 C 576.275 389.911 572.094 388.779 569.257 385.11 C 567.705 383.104 567.192 380.572 567.619 378.092 C 568.394 373.593 571.739 371.272 575.109 368.67 z"/>
<path transform="translate(0,0)" fill="rgb(249,203,108)" d="M 549.152 406.102 C 564.846 404.784 587.837 404.015 603.91 405.575 C 626.058 410.137 638.512 410.425 645.436 434.966 C 614.878 412.67 555.604 413.718 521.451 426.69 C 518.228 427.914 509.789 433.255 507.562 432.849 C 515.879 410.141 526.83 409.516 549.152 406.102 z"/>
<path transform="translate(0,0)" fill="rgb(142,197,79)" d="M 576.298 427.296 C 589.853 436.131 592.296 443.238 594.035 458.952 C 582.249 458.806 570.462 458.784 558.675 458.884 C 559.111 442.982 563.031 436.189 576.298 427.296 z"/>
<path transform="translate(0,0)" fill="rgb(142,197,79)" d="M 602.233 459.375 C 606.779 455.108 607.445 440.667 617.781 435.978 C 629.088 436.659 631.338 454.457 630.997 463.4 C 623.49 461.309 610.519 460.474 602.233 459.375 z"/>
<path transform="translate(0,0)" fill="rgb(142,197,79)" d="M 521.369 459.707 C 521.53 456.554 521.599 452.486 522.698 449.727 C 533.316 423.077 543.097 442.528 549.077 458.233 C 549.343 458.933 552.665 459.483 553.443 459.586 C 543.214 460.256 532.439 459.729 522.422 462.883 L 521.369 459.707 z"/>
<path transform="translate(0,0)" fill="rgb(249,203,108)" d="M 521.369 459.707 L 522.422 462.883 C 532.439 459.729 543.214 460.256 553.443 459.586 L 558.675 458.884 C 570.462 458.784 582.249 458.806 594.035 458.952 L 602.233 459.375 C 610.519 460.474 623.49 461.309 630.997 463.4 C 637.625 464.352 642.446 465.063 648.843 467.411 C 669.051 474.138 682.648 481.467 686.479 504.233 C 642.322 461.72 537.745 466.73 484.844 489.231 C 479.715 491.413 470.256 500.302 465.964 504.366 C 470.014 481.748 483.491 474.015 503.966 467.568 L 503.911 462.721 C 511.32 459.904 513.41 459.291 521.369 459.707 z"/>
<path transform="translate(0,0)" fill="rgb(57,129,68)" d="M 521.369 459.707 L 522.422 462.883 C 517.576 464.052 508.3 466.046 503.966 467.568 L 503.911 462.721 C 511.32 459.904 513.41 459.291 521.369 459.707 z"/>
<path transform="translate(0,0)" fill="rgb(218,153,41)" d="M 576.463 480.914 C 584.714 484.442 590.727 491.6 595.513 498.889 C 597.22 503.03 598.83 506.473 599.595 510.923 L 599.834 511.697 C 601.925 518.631 599.512 522.466 604.119 525.061 C 591.111 523.35 563.974 523.937 550.129 524.761 C 551.152 523.362 552 513.852 552.543 510.828 C 553.283 506.28 554.879 502.985 556.656 498.758 C 563.314 489.209 566.221 485.945 576.463 480.914 z"/>
<path transform="translate(0,0)" fill="rgb(249,203,108)" d="M 576.463 480.914 C 584.714 484.442 590.727 491.6 595.513 498.889 C 597.22 503.03 598.83 506.473 599.595 510.923 C 597.025 509.908 593.71 505.659 591.882 503.466 C 586.903 497.494 582.443 494.088 575.989 489.981 C 566.292 496.118 554.364 509.837 552.543 510.828 C 553.283 506.28 554.879 502.985 556.656 498.758 C 563.314 489.209 566.221 485.945 576.463 480.914 z"/>
<path transform="translate(0,0)" fill="rgb(218,153,41)" d="M 501.872 531.556 C 502.487 518.082 504.342 484.544 526.224 499.075 C 533.914 506.203 535.335 508.502 538.565 519.049 C 539.222 521.192 539.338 523.69 540.649 525.366 C 528.382 527.542 514.475 529.43 501.872 531.556 z"/>
<path transform="translate(0,0)" fill="rgb(218,153,41)" d="M 627.023 498.283 C 648.082 487.362 649.938 518.534 651.012 531.844 C 643.863 528.967 620.822 526.56 612.053 525.171 C 615.216 510.926 616.662 508.445 627.023 498.283 z"/>
<path transform="translate(0,0)" fill="rgb(218,153,41)" d="M 655.683 533.242 C 658.743 527.461 663.973 516.938 669.669 513.366 C 678.813 507.634 683.166 516.049 687.124 522.608 C 686.772 529.977 686.296 535.724 685.393 543.043 C 675.696 539.307 665.551 536.611 655.683 533.242 z"/>
<path transform="translate(0,0)" fill="rgb(218,153,41)" d="M 465.822 522.095 C 483.523 492.9 489.357 529.708 498.177 532.641 C 486.861 536.024 478.219 539.058 467.227 543.038 C 465.365 535.105 464.682 530.135 465.822 522.095 z"/>
<path transform="translate(0,0)" fill="rgb(29,96,152)" d="M 526.224 499.075 C 530.864 494.88 551.467 494.099 555.928 497.103 L 556.656 498.758 C 554.879 502.985 553.283 506.28 552.543 510.828 C 552 513.852 551.152 523.362 550.129 524.761 C 547.547 524.739 543.365 525.165 540.649 525.366 C 539.338 523.69 539.222 521.192 538.565 519.049 C 535.335 508.502 533.914 506.203 526.224 499.075 z"/>
<path transform="translate(0,0)" fill="rgb(29,96,152)" d="M 595.513 498.889 C 601.83 494.143 620.708 494.44 627.023 498.283 C 616.662 508.445 615.216 510.926 612.053 525.171 L 604.119 525.061 C 599.512 522.466 601.925 518.631 599.834 511.697 L 599.595 510.923 C 598.83 506.473 597.22 503.03 595.513 498.889 z"/>
<path transform="translate(0,0)" fill="rgb(249,203,108)" d="M 550.129 524.761 C 563.974 523.937 591.111 523.35 604.119 525.061 L 612.053 525.171 C 620.822 526.56 643.863 528.967 651.012 531.844 L 655.683 533.242 C 665.551 536.611 675.696 539.307 685.393 543.043 C 719.489 558.599 743.877 581.496 739.104 622.339 C 735.479 613.59 734.311 607.443 729.886 597.914 C 720.727 578.188 698.048 562.85 677.99 554.828 C 621.144 532.092 533.03 532.25 475.747 554.185 C 453.349 562.762 427.35 581.841 419.621 604.461 C 418.258 608.45 414.133 621.502 413.42 622.931 C 409.587 580.001 431.526 560.281 467.227 543.038 C 478.219 539.058 486.861 536.024 498.177 532.641 L 501.872 531.556 C 514.475 529.43 528.382 527.542 540.649 525.366 C 543.365 525.165 547.547 524.739 550.129 524.761 z"/>
<path transform="translate(0,0)" fill="rgb(194,124,41)" d="M 446.434 668.813 C 453.91 647.097 459.207 628.499 482.093 617.637 C 510.131 604.33 540.088 614.515 569.689 615.271 C 594.208 615.896 617.69 611.158 642.032 610.965 C 683.069 611.546 702.862 642.101 706.769 679.133 C 706.855 683.367 707.008 687.747 707.022 691.966 L 693.908 698.154 C 694.333 677.719 694.005 656.896 679.568 640.033 C 654.992 611.328 610.49 628.323 577.461 627.452 C 560.202 627.192 542.469 625.143 525.267 623.497 C 486.867 619.823 461.069 639.099 458.87 678.61 C 457.852 683.155 457.958 692.079 457.858 697.047 C 454.269 695.314 449.845 693.599 446.106 692.042 C 445.589 682.992 445.369 677.75 446.434 668.813 z"/>
<path transform="translate(0,0)" fill="rgb(218,153,41)" d="M 624.902 598.74 C 645.592 597.251 657.377 597.458 676.688 607.282 L 683.797 611.695 C 694.521 620.625 702.63 628.928 707.444 642.591 C 709.476 649.161 712.253 658.831 711.951 665.699 C 709.851 670.617 710.018 684.681 709.748 690.772 L 708.736 690.195 C 707.811 684.112 707.813 679.038 707.693 672.935 L 707.234 674.143 L 707.474 672.774 C 707.728 674.326 706.872 677.09 706.769 679.133 C 702.862 642.101 683.069 611.546 642.032 610.965 C 617.69 611.158 594.208 615.896 569.689 615.271 C 540.088 614.515 510.131 604.33 482.093 617.637 C 459.207 628.499 453.91 647.097 446.434 668.813 C 444.939 667.115 445.521 667.647 442.794 667.145 C 442.765 662.589 442.83 660.257 441.741 655.832 L 441.518 654.951 L 440.884 653.616 C 442.75 650.95 444.166 645.458 445.204 642.12 C 451.74 628.421 457.205 621.236 468.858 611.798 L 475.196 607.475 C 492.404 597.534 508.15 597.488 527.035 598.854 L 545.294 600.338 L 552.333 601.466 C 566.182 603.1 586.972 603.272 600.924 601.332 C 604.27 601.198 605.444 601.091 608.765 600.436 C 614.093 599.974 619.571 599.312 624.902 598.74 z"/>
<path transform="translate(0,0)" fill="rgb(51,137,96)" d="M 576.142 556.794 C 592.87 566.341 603.244 581.723 600.924 601.332 C 586.972 603.272 566.182 603.1 552.333 601.466 C 547.697 581.98 559.845 566.321 576.142 556.794 z"/>
<path transform="translate(0,0)" fill="rgb(51,137,96)" d="M 624.902 598.74 C 632.429 551.11 685.726 539.535 676.688 607.282 C 657.377 597.458 645.592 597.251 624.902 598.74 z"/>
<path transform="translate(0,0)" fill="rgb(51,137,96)" d="M 475.196 607.475 C 474.091 593.874 473.2 581.023 480.802 568.738 C 486.509 559.238 496.668 556.073 506.072 562.623 C 518.73 571.437 524.081 584.391 527.035 598.854 C 508.15 597.488 492.404 597.534 475.196 607.475 z"/>
<path transform="translate(0,0)" fill="rgb(142,197,79)" d="M 545.294 600.338 C 542.965 584.311 545.956 573.112 555.522 559.828 C 563.609 548.595 575.51 539.592 588.12 550.496 C 597.479 558.589 606.045 571.224 607.187 583.826 C 607.557 587.862 607.098 598.56 608.765 600.436 C 605.444 601.091 604.27 601.198 600.924 601.332 C 603.244 581.723 592.87 566.341 576.142 556.794 C 559.845 566.321 547.697 581.98 552.333 601.466 L 545.294 600.338 z"/>
<path transform="translate(0,0)" fill="rgb(51,137,96)" d="M 447.294 595.32 C 453.565 598.924 462.165 606.963 468.858 611.798 C 457.205 621.236 451.74 628.421 445.204 642.12 C 430.94 623.802 431.373 623.315 432.062 599.941 C 436.9 598.029 442.254 596.702 447.294 595.32 z"/>
<path transform="translate(0,0)" fill="rgb(51,137,96)" d="M 683.797 611.695 C 700.139 598.642 699.024 596.433 719.838 597.101 C 720.797 615.274 722.225 626.102 709.244 640.684 C 708.662 641.336 708.062 641.972 707.444 642.591 C 702.63 628.928 694.521 620.625 683.797 611.695 z"/>
<path transform="translate(0,0)" fill="rgb(234,182,99)" d="M 441.383 690.634 C 439.245 675.06 439.428 670.906 441.518 654.951 L 441.741 655.832 C 442.83 660.257 442.765 662.589 442.794 667.145 C 445.521 667.647 444.939 667.115 446.434 668.813 C 445.369 677.75 445.589 682.992 446.106 692.042 C 449.845 693.599 454.269 695.314 457.858 697.047 C 457.958 692.079 457.852 683.155 458.87 678.61 C 459.113 688.857 459.093 707.894 458.287 718.107 C 458.627 732.702 458.819 747.3 458.865 761.9 C 459.429 788.659 458.589 794.794 468.569 820.737 C 466.909 830.424 464.944 847.006 455.432 852.657 C 444.041 859.264 429.479 854.644 428.04 840.333 C 426.406 824.089 429.813 807.832 427.919 791.338 C 426.004 772.6 418.248 755.347 414.238 737.049 C 409.274 714.398 417.117 694.965 441.383 690.634 z"/>
<path transform="translate(0,0)" fill="rgb(194,124,41)" d="M 426.143 722.366 C 434.748 706.176 446.412 703.068 458.287 718.107 C 458.627 732.702 458.819 747.3 458.865 761.9 C 458.674 764.955 458.781 766.272 457.576 769.133 C 444.065 778.548 428.31 748.128 426.372 737.656 C 425.378 732.285 425.778 727.721 426.143 722.366 z"/>
<path transform="translate(0,0)" fill="rgb(234,182,99)" d="M 706.769 679.133 C 706.872 677.09 707.728 674.326 707.474 672.774 L 707.234 674.143 L 707.693 672.935 C 707.813 679.038 707.811 684.112 708.736 690.195 L 709.748 690.772 C 710.018 684.681 709.851 670.617 711.951 665.699 C 713.169 674.113 713.315 679.713 711.498 688.033 L 711.739 690.449 C 723.649 695.502 730.85 694.775 737.059 709.728 C 746.097 731.764 731.31 755.584 727.228 777.534 C 725.718 785.656 725.412 791.567 724.327 798.945 C 721.823 815.964 733.914 849.29 711.781 855.34 C 690.695 861.105 687.01 834.081 683.744 820.311 C 698.992 790.355 690.045 765.18 693.865 736.791 L 694.022 717.425 L 693.908 698.154 L 707.022 691.966 C 707.008 687.747 706.855 683.367 706.769 679.133 z"/>
<path transform="translate(0,0)" fill="rgb(194,124,41)" d="M 694.022 717.425 C 698.637 712.883 702.013 708.731 709.062 708.691 C 722.46 708.741 727.894 720.307 726.937 732.347 C 725.961 744.618 719.781 756.569 710.784 764.901 C 707.392 768.041 698.958 772.377 694.508 769.917 C 693.219 762.406 694.459 745.483 693.865 736.791 L 694.022 717.425 z"/>
<path transform="translate(0,0)" fill="rgb(234,144,93)" d="M 576.253 791.539 C 596.643 776.91 605.911 786.767 627.826 788.371 C 631.377 787.684 630.804 787.172 633.039 788.603 C 632.343 793.802 628.117 795.691 623.831 797.968 C 622.623 800.765 616.858 810.899 614.754 812.552 C 605.668 828.379 591.296 830.808 574.342 830.335 C 557.429 829.864 546.487 826.828 537.433 812.149 C 534.943 809.808 530.396 801.713 528.9 798.502 C 525.402 796.394 517.684 792.224 520.1 787.386 L 522.645 788.113 L 523.122 788.139 C 544.282 789.111 554.786 775.372 576.253 791.539 z"/>
<path transform="translate(0,0)" fill="rgb(210,109,61)" d="M 576.253 791.539 C 596.643 776.91 605.911 786.767 627.826 788.371 C 631.377 787.684 630.804 787.172 633.039 788.603 C 632.343 793.802 628.117 795.691 623.831 797.968 C 586.533 809.898 565.958 807.821 528.9 798.502 C 525.402 796.394 517.684 792.224 520.1 787.386 L 522.645 788.113 L 523.122 788.139 C 544.282 789.111 554.786 775.372 576.253 791.539 z"/>
<path transform="translate(0,0)" fill="rgb(184,83,35)" d="M 528.9 798.502 C 525.402 796.394 517.684 792.224 520.1 787.386 L 522.645 788.113 C 560.589 802.217 589.986 803.283 627.826 788.371 C 631.377 787.684 630.804 787.172 633.039 788.603 C 632.343 793.802 628.117 795.691 623.831 797.968 C 586.533 809.898 565.958 807.821 528.9 798.502 z"/>
<path transform="translate(0,0)" fill="rgb(194,124,41)" d="M 537.433 812.149 C 542.086 813.006 547.321 815.911 551.832 817.8 C 565.521 823.53 581.495 824.602 595.771 820.582 C 602.13 818.761 608.459 812.718 614.754 812.552 C 605.668 828.379 591.296 830.808 574.342 830.335 C 557.429 829.864 546.487 826.828 537.433 812.149 z"/>
<path transform="translate(0,0)" fill="rgb(218,153,41)" d="M 562.139 746.659 C 565.392 733.798 565.298 713.603 573.519 705.2 C 585.893 700.78 588.627 738.365 590.201 746.531 C 597.264 747.86 601.038 748.002 605.909 753.525 C 607.326 756.513 608.202 760.573 607.412 764.108 C 605.708 771.725 592.195 769.286 586.834 774.136 C 585.811 775.062 581.703 776.94 580.384 776.929 C 570.475 776.54 557.073 773.253 548.604 768.103 C 541.379 763.711 544.42 756.186 548.759 751.101 C 552.902 747.212 556.565 747.171 562.139 746.659 z"/>
<path transform="translate(0,0)" fill="rgb(194,124,41)" d="M 548.759 751.101 L 550.283 752.659 L 550.2 753.801 C 549.991 756.927 549.625 758.595 551.514 761.174 C 556.401 764.544 556.813 761.482 560.062 762.096 C 565.138 763.28 572.659 769.391 577.699 768.292 C 584.329 766.847 589.206 760.945 596.767 762.025 C 602.375 762.826 603.707 757.969 605.909 753.525 C 607.326 756.513 608.202 760.573 607.412 764.108 C 605.708 771.725 592.195 769.286 586.834 774.136 C 585.811 775.062 581.703 776.94 580.384 776.929 C 570.475 776.54 557.073 773.253 548.604 768.103 C 541.379 763.711 544.42 756.186 548.759 751.101 z"/>
<path transform="translate(0,0)" fill="rgb(218,153,41)" d="M 483.057 714.089 C 487.542 702.478 493.046 694.554 504.989 689.161 C 514.39 684.924 525.092 684.607 534.728 688.28 C 543.488 691.698 557.776 704.264 555.426 714.497 L 553.278 715.608 L 547.554 714.489 L 546.697 715.1 C 535.681 715.008 524.663 715.128 513.651 715.458 L 513.075 714.484 C 505.722 713.265 490.974 713.856 483.057 714.089 z"/>
<path transform="translate(0,0)" fill="rgb(218,153,41)" d="M 598.747 714.738 L 597.323 713.985 C 594.084 690.528 650.353 665.893 668.101 711.872 L 667.516 713.432 C 659.558 715.95 643.502 711.923 638.222 714.88 L 637.928 715.797 C 635.093 714.783 612.784 715.668 605.763 714.837 L 598.747 714.738 z"/>
<path transform="translate(0,0)" fill="rgb(246,245,244)" d="M 546.697 715.1 L 547.554 714.489 L 553.278 715.608 C 554.039 715.941 555.266 716.654 556.046 717.072 C 558.141 731.417 547.751 750.25 532.729 739.608 C 521.916 736.038 508.787 731.36 497.513 730.356 C 489.975 729.684 479.093 727.145 483.861 716.741 C 489.79 712.61 503.548 715.017 512.099 714.542 L 513.075 714.484 L 513.651 715.458 C 524.663 715.128 535.681 715.008 546.697 715.1 z"/>
<path transform="translate(0,0)" fill="rgb(46,61,71)" d="M 513.651 715.458 C 524.663 715.128 535.681 715.008 546.697 715.1 C 540.466 739.277 517.189 739.349 513.651 715.458 z"/>
<path transform="translate(0,0)" fill="rgb(246,245,244)" d="M 598.747 714.738 L 605.763 714.837 C 612.784 715.668 635.093 714.783 637.928 715.797 L 638.222 714.88 C 644.26 714.657 662.633 714.444 667.991 715.034 L 668.994 716.502 C 668.981 720.868 669.19 722.777 667.569 726.847 C 663.669 731.528 647.557 730.313 640.652 732.532 C 631.16 735.896 622.12 739.566 612.495 742.555 C 599.705 746.528 593.752 721.304 598.747 714.738 z"/>
<path transform="translate(0,0)" fill="rgb(46,61,71)" d="M 605.763 714.837 C 612.784 715.668 635.093 714.783 637.928 715.797 C 635.432 739.921 611.851 738.485 605.763 714.837 z"/>
<path transform="translate(0,0)" fill="rgb(194,124,41)" d="M 513.59 665.294 C 517.822 665.029 522.119 664.734 526.346 665.187 C 534.634 666.077 552.477 671.662 557.639 679.086 C 559.334 681.524 559.201 682.618 558.832 685.372 L 556.799 686.773 C 549.385 687.224 534.884 678.028 524.492 676.074 C 500.042 675.334 502.658 683.103 484.332 689.219 C 481.844 688.715 481.684 688.653 480.026 686.737 C 479.283 684.156 479.292 682.865 480.288 680.363 C 488.335 671.779 502.253 666.789 513.59 665.294 z"/>
<path transform="translate(0,0)" fill="rgb(194,124,41)" d="M 624.358 665.19 C 638.61 664.018 654.333 666.268 665.812 675.437 C 668.967 677.957 672.449 681.594 672.774 685.821 C 672.908 687.566 672.354 687.802 671.296 689.083 C 665.334 690.127 652.723 679.756 644.752 677.444 C 618.617 672.652 622.343 678.116 602.869 686.622 C 599.754 687.983 597.212 688.359 594.06 687.175 L 593.217 685.196 C 593.429 682.931 593.974 681.096 595.235 679.197 C 600.685 670.993 615.139 667.071 624.358 665.19 z"/>
<path transform="translate(0,0)" fill="rgb(234,144,93)" d="M 655.5 742.376 C 661.218 741.998 666.188 742.741 671.757 743.807 C 674.1 745.924 676.878 748.381 677.591 751.582 C 678.141 754.051 677.677 756.645 676.145 758.675 C 673.164 762.622 668.223 763.519 663.655 764.201 C 658.115 764.145 651.747 764.639 646.548 762.539 C 642.284 760.816 639.317 758.591 637.45 754.248 C 637.467 751.672 637.442 750.34 639.255 748.259 C 643.215 743.713 649.887 742.753 655.5 742.376 z"/>
<path transform="translate(0,0)" fill="rgb(234,144,93)" d="M 488.791 742.273 C 494.934 742.031 501.89 741.869 507.36 745.048 C 510.388 746.808 513.144 749.005 514.005 752.567 C 514.456 754.431 514.066 756.358 512.907 757.928 C 509.687 762.291 504.237 763.017 499.282 763.868 C 492.371 764.201 486.425 764.682 480.342 760.9 C 477.229 758.964 474.892 756.833 474.087 753.097 C 473.794 751.735 474.538 749.608 475.358 748.522 C 478.328 744.589 484.229 743.125 488.791 742.273 z"/>
<path transform="translate(0,0)" fill="rgb(234,182,99)" d="M 542.675 846 C 547.277 848.208 551.271 851.487 555.998 853.637 C 567.48 858.858 584.336 861.207 595.803 854.681 C 599.563 852.541 603.287 848.833 607.33 847.442 C 609.634 846.649 609.798 846.59 612.001 847.63 C 612.875 850.306 612.306 851.932 611.406 854.529 C 606.745 857.913 601.9 861.033 596.475 863.051 C 581.162 868.745 564.448 867.539 549.743 860.561 C 545.742 858.662 541.511 856.18 539.955 851.812 C 540.258 848.596 540.479 848.401 542.675 846 z"/>
<path transform="translate(0,0)" fill="rgb(254,244,207)" d="M 570.689 654.094 C 574.564 653.45 578.903 653.318 582.308 655.59 C 584.513 657.062 586.067 659.238 586.555 661.858 C 587.392 666.354 584.633 671.458 582.049 674.977 C 579.511 675.09 576.916 675.169 574.4 674.751 C 570.788 674.153 567.811 671.544 565.788 668.588 C 564.282 666.388 563.925 663.902 564.573 661.331 C 565.516 657.587 567.624 656.012 570.689 654.094 z"/>
<path transform="translate(0,0)" fill="rgb(218,153,41)" d="M 517.055 772.912 C 517.633 772.957 517.815 772.954 518.451 773.105 C 520.829 773.668 521.364 773.863 522.538 775.993 C 521.399 780.17 515.184 784.552 512.055 787.48 C 511.895 792.503 511.698 797.433 511.043 802.424 C 508.428 802.389 507.885 802.065 505.609 800.715 C 503.662 798.133 503.255 795.815 503.661 792.608 C 504.751 783.994 510.428 777.834 517.055 772.912 z"/>
<path transform="translate(0,0)" fill="rgb(218,153,41)" d="M 630.164 772.466 C 631.576 772.63 633.047 772.843 634.384 773.353 C 639.294 775.227 644.167 779.311 646.407 784.101 C 649.416 790.536 648.543 795.011 646.286 801.496 C 644.405 802.217 644.196 802.432 642.167 801.889 C 640.486 798.968 641.258 795.63 641.061 792.382 C 640.661 785.786 635.707 783.992 631.668 779.89 C 629.524 777.713 630.083 775.226 630.164 772.466 z"/>
<path transform="translate(0,0)" fill="rgb(249,203,108)" d="M 969.008 1528 C 987.546 1534.75 1006.04 1541.62 1024.49 1548.6 C 1034.59 1552.43 1051.1 1558.3 1059.9 1563.68 C 1062.67 1569.16 1064.25 1572.14 1064.17 1578.42 C 1064.35 1585.27 1064.47 1592.12 1064.54 1598.97 C 1064.56 1605.66 1064.41 1613.75 1060.11 1619.28 C 1050.37 1631.84 981.234 1648.13 971.863 1657.52 C 971.837 1659.96 972.607 1661.92 973.425 1664.17 L 972.214 1665.53 L 970.467 1665.41 L 969.584 1660.15 C 967.815 1658.7 966.886 1658.44 964.598 1659.09 C 958.302 1660.89 951.903 1664.07 945.751 1666.45 C 930.995 1672.18 916.205 1677.83 901.383 1683.39 C 830.232 1709.58 759.866 1738.16 689.067 1765.33 C 660.724 1776.2 608.445 1800.79 580.597 1801.38 C 570.293 1801.6 558.518 1801.26 548.634 1798.1 C 528.957 1791.79 509.654 1783.38 490.384 1775.91 L 388.823 1736.75 C 295.369 1700.83 201.322 1665.94 108.436 1628.59 C 104.424 1626.98 96.8358 1624.71 93.9022 1621.6 C 84.6138 1611.75 87.8044 1589.25 87.6948 1576.66 C 88.0259 1559.38 112.018 1554.61 126.013 1549.27 C 144.909 1542.06 163.845 1534.95 182.817 1527.94 C 182.891 1536.03 183.766 1542.59 184.745 1550.63 L 186.388 1557.07 C 195.179 1581.12 208.702 1598.19 232.257 1609.18 C 347.276 1662.83 788.366 1658.42 907.195 1614.62 C 930.32 1606.1 949.965 1593.96 960.65 1570.63 C 962.677 1566.11 964.53 1561.52 966.207 1556.87 L 967.175 1552.88 C 968.456 1543.19 969.054 1537.73 969.008 1528 z"/>
<path transform="translate(0,0)" fill="rgb(194,124,41)" d="M 87.6948 1576.66 C 90.9796 1580.67 93.7246 1584.54 98.5021 1586.49 C 121.212 1595.74 144.461 1604.52 167.325 1613.35 L 324.011 1673.05 L 479.186 1733.51 C 537.974 1756.47 565.134 1777.2 627.367 1751.15 C 667.64 1734.3 712.453 1717.73 753.61 1701.87 L 957.398 1623.66 C 976.503 1616.32 1047.89 1591.84 1059.95 1582.01 C 1061.39 1580.85 1062.79 1579.65 1064.17 1578.42 C 1064.35 1585.27 1064.47 1592.12 1064.54 1598.97 C 1064.56 1605.66 1064.41 1613.75 1060.11 1619.28 C 1050.37 1631.84 981.234 1648.13 971.863 1657.52 C 971.837 1659.96 972.607 1661.92 973.425 1664.17 L 972.214 1665.53 L 970.467 1665.41 L 969.584 1660.15 C 967.815 1658.7 966.886 1658.44 964.598 1659.09 C 958.302 1660.89 951.903 1664.07 945.751 1666.45 C 930.995 1672.18 916.205 1677.83 901.383 1683.39 C 830.232 1709.58 759.866 1738.16 689.067 1765.33 C 660.724 1776.2 608.445 1800.79 580.597 1801.38 C 570.293 1801.6 558.518 1801.26 548.634 1798.1 C 528.957 1791.79 509.654 1783.38 490.384 1775.91 L 388.823 1736.75 C 295.369 1700.83 201.322 1665.94 108.436 1628.59 C 104.424 1626.98 96.8358 1624.71 93.9022 1621.6 C 84.6138 1611.75 87.8044 1589.25 87.6948 1576.66 z"/>
<path transform="translate(0,0)" fill="rgb(218,153,41)" d="M 709.989 1745.66 C 711.738 1745.91 713.589 1746.1 715.292 1746.58 C 717.716 1747.25 718.76 1747.82 719.947 1750 L 718.766 1752.1 C 715.1 1752.32 711.456 1753 708.182 1751.27 C 707.996 1748.62 708.716 1747.93 709.989 1745.66 z"/>
<path transform="translate(0,0)" fill="rgb(254,244,207)" d="M 967.175 1552.88 C 979.391 1557.8 991.793 1562.4 1004.03 1567.26 C 1008.19 1568.91 1011.56 1570.34 1009.58 1574.94 C 1003.55 1580.08 979.162 1588.41 970.641 1591.62 C 973.106 1577.32 973.403 1570.02 966.207 1556.87 L 967.175 1552.88 z"/>
<path transform="translate(0,0)" fill="rgb(254,244,207)" d="M 181.254 1591.79 C 173.247 1588.39 144.252 1578.92 140.586 1573.29 C 142.281 1566.51 173.195 1561.12 184.387 1550.96 L 184.745 1550.63 L 186.388 1557.07 C 177.77 1569.56 178.359 1577.87 181.254 1591.79 z"/>
<path transform="translate(0,0)" fill="rgb(254,244,207)" d="M 796.736 1656.54 L 797.198 1656.82 C 796.364 1658.6 793.616 1659.46 791.827 1660.26 C 786.355 1662.71 780.473 1664.28 774.914 1666.55 C 746.339 1678.23 717.326 1688.84 688.496 1699.89 L 631.953 1721.54 C 618.946 1726.59 605.816 1732.26 592.421 1736.18 C 585.069 1738.33 576.853 1739.9 569.186 1738.98 C 553.283 1737.08 533.149 1726.38 517.767 1720.47 L 408.236 1678.57 C 400.094 1675.87 392.193 1672.36 384.101 1669.49 C 377.118 1667.01 368.634 1665.06 362.127 1661.64 C 360.322 1660.69 359.377 1659.91 358.384 1658.13 C 360.242 1656.94 361.489 1656.86 363.666 1656.95 C 372.158 1657.32 381.168 1659.44 389.704 1660.44 C 408.337 1662.66 427.046 1664.2 445.792 1665.05 C 505.998 1667.69 566.274 1668.37 626.524 1667.1 C 685.385 1665.99 738.19 1663.93 796.736 1656.54 z"/>
<path transform="translate(0,0)" fill="rgb(66,174,220)" d="M 497.727 289.796 C 468.668 257.082 491.19 231.718 509.963 201.12 C 524.166 177.972 561.851 201.342 579.093 198.638 C 616.403 192.787 635.019 176.835 655.761 221.653 C 668.666 246.786 679.162 262.535 655.933 289.099 C 655.714 318.116 654.56 387.427 648.246 414.685 C 641.812 407.068 633.787 403.238 624.663 399.512 C 623.293 399.268 617.542 398.672 617.419 397.063 C 615.941 377.578 603.47 365.407 588.63 353.655 C 577.888 345.924 574.3 346.522 563.773 354.082 C 546.553 368.254 538.864 374.884 535.014 396.744 C 534.76 398.187 530.322 399.211 528.72 399.747 C 517.51 402.531 511.063 406.076 504.801 415.779 C 498.154 386.786 497.718 320.418 497.727 289.796 z"/>
<path transform="translate(0,0)" fill="rgb(29,96,152)" d="M 655.933 289.099 C 655.714 318.116 654.56 387.427 648.246 414.685 C 641.812 407.068 633.787 403.238 624.663 399.512 C 623.293 399.268 617.542 398.672 617.419 397.063 C 615.941 377.578 603.47 365.407 588.63 353.655 C 577.888 345.924 574.3 346.522 563.773 354.082 C 546.553 368.254 538.864 374.884 535.014 396.744 C 534.76 398.187 530.322 399.211 528.72 399.747 C 517.51 402.531 511.063 406.076 504.801 415.779 C 498.154 386.786 497.718 320.418 497.727 289.796 C 502.916 292.428 510.503 299.146 515.892 302.448 C 564.526 332.247 613.615 324.092 655.933 289.099 z"/>
<path transform="translate(0,0)" fill="rgb(66,174,220)" d="M 588.63 353.655 C 607.134 349.137 613.695 345.853 629.07 334.017 C 629.297 355.93 627.824 377.827 624.663 399.512 C 623.293 399.268 617.542 398.672 617.419 397.063 C 615.941 377.578 603.47 365.407 588.63 353.655 z"/>
<path transform="translate(0,0)" fill="rgb(66,174,220)" d="M 524.381 333.106 C 542.848 348.913 543.61 346.149 563.773 354.082 C 546.553 368.254 538.864 374.884 535.014 396.744 C 534.76 398.187 530.322 399.211 528.72 399.747 C 525.477 377.687 524.026 355.4 524.381 333.106 z"/>
<path transform="translate(0,0)" fill="rgb(29,96,152)" d="M 511.919 267.374 C 519.325 267.972 527.481 277.27 534.6 280.485 C 549.402 287.169 562.469 275.94 577.255 276.357 C 589.637 276.706 600.77 284.623 613.503 281.987 C 623.464 279.924 629.995 270.41 637.516 268.391 C 639.483 267.863 640.213 268.601 641.822 269.557 C 642.925 272.447 642.856 272.811 642.105 275.831 C 640.699 277.555 639.205 279.206 637.628 280.775 C 617.341 301.063 599.262 286.828 577.291 286.916 L 576.505 286.924 C 560.408 287.005 547.827 295.225 531.222 289.969 C 523.838 287.631 513.566 281.458 509.926 274.444 C 509.74 271.241 510.495 270.154 511.919 267.374 z"/>
<path transform="translate(0,0)" fill="rgb(62,64,63)" d="M 608.601 237.059 C 603.75 202.426 654.346 216.624 643.68 233.794 C 641.192 234.922 639.919 235.527 637.171 235.534 C 629.864 237.723 616.286 244.108 611.2 242.701 C 609.255 240.577 609.319 239.973 608.601 237.059 z"/>
<path transform="translate(0,0)" fill="rgb(246,245,244)" d="M 608.601 237.059 C 603.75 202.426 654.346 216.624 643.68 233.794 C 641.192 234.922 639.919 235.527 637.171 235.534 C 629.318 218.916 615.069 219.112 608.601 237.059 z"/>
<path transform="translate(0,0)" fill="rgb(62,64,63)" d="M 506.385 232.65 C 509.454 225.2 511.048 220.088 519.124 216.639 C 523.84 214.577 529.199 214.563 533.925 216.6 C 540.633 219.48 546.026 227.905 543.623 235.118 C 543.339 238.028 543.541 240.129 541.646 242.181 C 535.955 244.386 525.031 237.855 516.25 235.676 C 512.852 234.806 509.58 234.101 506.385 232.65 z"/>
<path transform="translate(0,0)" fill="rgb(246,245,244)" d="M 506.385 232.65 C 509.454 225.2 511.048 220.088 519.124 216.639 C 523.84 214.577 529.199 214.563 533.925 216.6 C 540.633 219.48 546.026 227.905 543.623 235.118 C 537.862 218.691 522.444 219.635 516.25 235.676 C 512.852 234.806 509.58 234.101 506.385 232.65 z"/>
<path transform="translate(0,0)" fill="rgb(29,96,152)" d="M 594.49 254.795 C 595.09 254.792 595.691 254.772 596.289 254.808 C 599.166 254.982 600.12 255.652 601.961 257.661 L 601.755 260.237 C 600.319 263.014 598.09 264.124 595.506 265.646 C 592.667 265.661 591.302 265.871 588.774 264.435 L 588.327 262.149 C 589.409 258.76 591.864 257.007 594.49 254.795 z"/>
<path transform="translate(0,0)" fill="rgb(29,96,152)" d="M 555.057 253.745 C 558.396 255.15 562.45 257.269 564.269 260.479 C 564.643 263.739 563.978 264.316 562.318 267.002 C 560.643 266.383 558.982 265.727 557.337 265.033 C 554.681 263.893 552.466 262.818 551.329 260.009 C 551.952 256.779 552.869 256.066 555.057 253.745 z"/>
<path transform="translate(0,0)" fill="rgb(29,96,152)" d="M 256.775 511.306 C 239.832 503.622 228.081 490.861 228.806 471.074 C 229.345 456.369 225.86 432.564 236.844 421.216 C 245.684 412.084 265.611 413.44 277.027 408.562 C 291.141 403.742 302.815 385.487 318.337 385.885 C 333.826 386.281 344.663 403.138 353.394 413.823 C 364.332 427.209 368.432 436.824 368.029 453.779 C 379.922 482.236 397.863 507.848 417.192 531.638 C 420.054 535.161 427.184 544.854 430.222 547.118 C 431.51 548.409 432.325 549.074 433.356 550.591 C 426.576 556.76 420.642 562.478 415.339 570.048 C 393.445 605.742 401.171 633.155 415.501 669.852 C 410.506 666.928 405.569 662.805 400.978 659.201 C 395.077 656.922 376.328 644.104 371.76 639.876 C 351.882 628.954 325.943 600.584 309.08 585.957 C 303.102 568.437 293.487 562.163 280.178 550.464 C 285.136 551.742 288.442 552.825 292.819 555.625 C 278.726 538.15 270.761 531.642 256.775 511.306 z"/>
<path transform="translate(0,0)" fill="rgb(66,174,220)" d="M 256.775 511.306 C 239.832 503.622 228.081 490.861 228.806 471.074 C 229.345 456.369 225.86 432.564 236.844 421.216 C 245.684 412.084 265.611 413.44 277.027 408.562 C 291.141 403.742 302.815 385.487 318.337 385.885 C 333.826 386.281 344.663 403.138 353.394 413.823 C 364.332 427.209 368.432 436.824 368.029 453.779 C 352.055 506.787 307.478 523.948 256.775 511.306 z"/>
<path transform="translate(0,0)" fill="rgb(29,96,152)" d="M 346.005 448.457 C 347.365 448.813 348.507 449.614 349.697 450.335 C 350.876 453.071 351.11 454.651 350.113 457.595 C 348.393 462.678 344.944 467.278 341.319 471.16 C 328.413 484.981 321.341 477.217 307.262 483.355 C 299.372 486.794 293.727 493.623 286.087 497.206 C 277.279 501.337 267.251 498.072 258.696 494.863 C 256.594 492.932 255.599 492.186 254.672 489.409 L 255.668 487.805 C 263.79 485.479 274.241 492.139 282.732 490.194 C 290.805 488.346 295.959 478.985 303.525 475.56 C 310.031 472.615 318.612 473.251 325.589 471.636 C 337.93 468.777 340.031 457.849 346.005 448.457 z"/>
<path transform="translate(0,0)" fill="rgb(246,245,244)" d="M 312.268 430.732 C 307.073 426.012 311.44 413.142 318.404 410.361 C 327.489 406.731 333.326 407.028 337.784 416.563 C 337.354 420.229 337.959 418.857 335.369 421.693 L 333.101 421.759 C 325.035 427.194 322.048 434.269 315.775 434.56 C 313.763 432.968 313.665 432.866 312.268 430.732 z"/>
<path transform="translate(0,0)" fill="rgb(46,61,71)" d="M 312.268 430.732 C 314.301 415.88 321.181 412.773 333.101 421.759 C 325.035 427.194 322.048 434.269 315.775 434.56 C 313.763 432.968 313.665 432.866 312.268 430.732 z"/>
<path transform="translate(0,0)" fill="rgb(46,61,71)" d="M 246.087 454.147 C 245.89 457.094 246.368 455.999 244.444 458.179 C 241.659 458.52 242.785 458.688 240.174 457.19 C 228.646 440.919 264.271 432.132 263.21 444.09 C 265.72 447.231 268.544 450.885 268.224 455.011 L 267.4 456.569 C 261.574 457.458 254.081 456.749 248.069 456.423 C 246.937 455.487 246.662 455.462 246.087 454.147 z"/>
<path transform="translate(0,0)" fill="rgb(246,245,244)" d="M 246.087 454.147 C 245.89 457.094 246.368 455.999 244.444 458.179 C 241.659 458.52 242.785 458.688 240.174 457.19 C 228.646 440.919 264.271 432.132 263.21 444.09 C 252.939 442.031 249.645 443.945 246.087 454.147 z"/>
<path transform="translate(0,0)" fill="rgb(29,96,152)" d="M 279.174 462.903 C 282.365 462.901 284.906 462.884 287.893 464.229 C 289.945 466.583 290.153 467.705 290.804 470.665 C 287.36 470.855 283.782 471.462 280.575 469.983 C 278.808 467.226 279.088 466.077 279.174 462.903 z"/>
<path transform="translate(0,0)" fill="rgb(29,96,152)" d="M 311.889 450.482 C 313.208 450.718 314.447 451.145 315.723 451.545 L 316.598 453.595 C 315.934 456.991 313.253 459.453 311.033 461.96 C 310.569 461.885 310.392 461.886 309.922 461.64 C 307.849 460.551 307.755 459.633 307.353 457.536 C 308.22 454.392 309.717 452.764 311.889 450.482 z"/>
<path transform="translate(0,0)" fill="rgb(66,174,220)" d="M 309.692 538.863 C 339.719 532.557 348.769 526.566 363.369 499.489 C 377.634 521.656 398.061 549.994 415.339 570.048 C 393.445 605.742 401.171 633.155 415.501 669.852 C 410.506 666.928 405.569 662.805 400.978 659.201 C 375.08 619.001 338.937 577.062 309.692 538.863 z"/>
<path transform="translate(0,0)" fill="rgb(13,47,78)" d="M 280.178 550.464 C 285.136 551.742 288.442 552.825 292.819 555.625 C 309.482 575.158 325.523 592.305 343.509 610.518 C 348.032 615.097 369.549 636.48 371.76 639.876 C 351.882 628.954 325.943 600.584 309.08 585.957 C 303.102 568.437 293.487 562.163 280.178 550.464 z"/>
<path transform="translate(0,0)" fill="rgb(51,137,96)" d="M 785.465 443.047 C 786.009 440.305 787.546 432.462 789.019 429.977 C 797.249 416.094 820.441 382.647 838.372 386.077 C 849.625 388.23 865.03 405.523 876.883 409.332 C 888.154 414.2 911.542 412.344 918.371 424.485 C 925.695 437.508 924.634 466.701 922.813 481.368 C 921.128 494.943 908.331 507.366 895.768 511.392 C 892.85 515.335 872.309 541.12 871.697 542.945 L 871.303 543.772 C 868.48 549.571 865.339 551.149 861.836 556.532 L 862.214 557.515 L 865.108 557.34 C 851.748 568.131 850.261 570.233 843.718 586.038 C 822.374 607.283 808.821 620.225 784.181 637.824 C 773.732 646.214 767.047 651.513 755.218 657.642 C 752.366 658.369 743.31 666.834 736.764 670.205 C 750.701 635.479 760.227 604.7 738.381 570.834 C 731.021 561.127 727.882 557.105 717.992 549.934 L 722.244 546.529 C 722.863 546.116 723.465 545.679 724.05 545.218 C 738.685 533.653 779.226 473.751 784.486 455.257 C 785.143 452.947 785.036 446.605 785.465 443.047 z"/>
<path transform="translate(0,0)" fill="rgb(142,197,79)" d="M 785.465 443.047 C 786.009 440.305 787.546 432.462 789.019 429.977 C 797.249 416.094 820.441 382.647 838.372 386.077 C 849.625 388.23 865.03 405.523 876.883 409.332 C 888.154 414.2 911.542 412.344 918.371 424.485 C 925.695 437.508 924.634 466.701 922.813 481.368 C 921.128 494.943 908.331 507.366 895.768 511.392 C 859.88 520.914 820.185 514.76 798.165 481.529 C 789.392 468.29 785.962 459.135 785.465 443.047 z"/>
<path transform="translate(0,0)" fill="rgb(51,137,96)" d="M 804.928 448.474 C 812.146 451.378 813.527 464.364 820.735 469.152 C 828.696 474.439 839.535 472.125 848.196 475.518 C 854.558 478.011 859.775 483.584 865.451 487.325 C 877.824 495.48 880.834 489.386 892.65 487.256 C 895.176 486.801 895.799 486.777 897.87 488.224 C 898.32 490.569 898.036 491.916 897.197 494.134 C 894.734 495.182 892.262 496.155 889.698 496.929 C 863.504 504.831 864.907 490.204 844.398 483.248 C 836.4 480.535 826.947 482.279 819.415 478.106 C 811.803 473.889 805.144 465.777 802.972 457.311 C 801.96 453.366 802.963 451.718 804.928 448.474 z"/>
<path transform="translate(0,0)" fill="rgb(246,245,244)" d="M 819.678 421.385 L 817.651 421.975 C 815.396 420.216 816.091 421.133 815.319 418.022 C 819.653 398.977 845.356 407.839 842.229 427.439 L 841.344 427.646 L 840.728 425.084 C 840.558 429.283 840.384 435.156 835.49 435.539 C 832.056 433.925 823.808 425.071 819.678 421.385 z"/>
<path transform="translate(0,0)" fill="rgb(62,64,63)" d="M 819.678 421.385 C 828.243 414.404 834.842 414.709 840.728 425.084 C 840.558 429.283 840.384 435.156 835.49 435.539 C 832.056 433.925 823.808 425.071 819.678 421.385 z"/>
<path transform="translate(0,0)" fill="rgb(62,64,63)" d="M 888.351 444.841 C 891.753 431.164 919.949 442.308 913.348 456.226 C 912.257 458.526 911.736 458.274 909.595 459.051 L 907.346 457.922 C 907.03 456.202 906.733 455.461 907.273 453.783 L 905.512 456.902 C 901.969 456.809 888.13 456.718 885.671 455.985 L 884.73 453.492 C 885.009 449.751 886.389 448.04 888.351 444.841 z"/>
<path transform="translate(0,0)" fill="rgb(246,245,244)" d="M 888.351 444.841 C 891.753 431.164 919.949 442.308 913.348 456.226 C 912.257 458.526 911.736 458.274 909.595 459.051 L 907.346 457.922 C 907.03 456.202 906.733 455.461 907.273 453.783 C 902.605 444.125 898.833 441.594 888.351 444.841 z"/>
<path transform="translate(0,0)" fill="rgb(57,129,68)" d="M 867.022 462.706 C 868.017 462.712 869.09 462.686 870.069 462.873 C 872.493 463.338 872.878 463.919 874.076 465.884 C 873.078 468.858 871.981 469.445 869.603 471.354 C 868.088 471.31 866.516 471.324 865.062 470.853 C 863.125 470.226 863.102 470.003 862.17 468.171 C 863.023 465.39 864.794 464.357 867.022 462.706 z"/>
<path transform="translate(0,0)" fill="rgb(51,137,96)" d="M 836.312 450.243 C 839.465 450.614 841.373 450.839 843.797 453.14 C 845.443 456.211 845.187 458.966 845.058 462.343 C 842.984 462.056 841.295 461.579 839.683 460.165 C 836.826 457.659 836.674 453.76 836.312 450.243 z"/>
<path transform="translate(0,0)" fill="rgb(142,197,79)" d="M 738.381 570.834 C 756.837 546.254 772.44 524.854 789.968 499.735 C 803.932 525.741 814.022 533.605 843.426 538.531 C 832.796 552.741 753.977 649.843 755.115 657.465 C 755.125 657.532 755.184 657.583 755.218 657.642 C 752.366 658.369 743.31 666.834 736.764 670.205 C 750.701 635.479 760.227 604.7 738.381 570.834 z"/>
<path transform="translate(0,0)" fill="rgb(46,61,71)" d="M 784.181 637.824 C 783.79 639.449 863.444 550.939 871.697 542.945 L 871.303 543.772 C 868.48 549.571 865.339 551.149 861.836 556.532 L 862.214 557.515 L 865.108 557.34 C 851.748 568.131 850.261 570.233 843.718 586.038 C 822.374 607.283 808.821 620.225 784.181 637.824 z"/>
<path transform="translate(0,0)" fill="rgb(218,153,41)" d="M 865.108 557.34 C 874.163 549.406 885.928 536.093 898.656 536.814 C 914.323 537.82 920.612 554.832 933.589 562.069 C 954.534 573.752 980.441 571.43 976.881 603.108 C 973.007 637.58 974.601 657.657 935.768 668.465 C 920.167 677.287 906.777 689.117 891.095 697.072 C 886.589 698.464 874.389 702.445 870.831 705.303 C 853.465 711.82 836.954 719.829 819.656 726.21 C 807.995 734.401 792.274 741.499 779.868 749.353 C 764.616 759.008 752.214 768.952 738.59 780.562 C 744.757 751.062 759.603 731.395 746.365 702.265 C 740.075 692.898 737.953 691.214 729.011 684.973 C 731.363 679.991 734.132 675.059 736.764 670.205 C 743.31 666.834 752.366 658.369 755.218 657.642 C 767.047 651.513 773.732 646.214 784.181 637.824 C 808.821 620.225 822.374 607.283 843.718 586.038 C 850.261 570.233 851.748 568.131 865.108 557.34 z"/>
<path transform="translate(0,0)" fill="rgb(249,203,108)" d="M 865.108 557.34 C 874.163 549.406 885.928 536.093 898.656 536.814 C 914.323 537.82 920.612 554.832 933.589 562.069 C 954.534 573.752 980.441 571.43 976.881 603.108 C 973.007 637.58 974.601 657.657 935.768 668.465 C 933.168 668.159 928.245 668.335 925.357 668.429 C 881.539 669.853 840.025 633.68 843.718 586.038 C 850.261 570.233 851.748 568.131 865.108 557.34 z"/>
<path transform="translate(0,0)" fill="rgb(194,124,41)" d="M 860.996 594.394 C 867.196 596.063 869.838 611.099 874.439 616.366 C 880.644 623.467 892.018 621.097 899.799 625.553 C 906.719 629.516 911.213 636.787 917.502 641.542 C 925.816 647.828 931.39 644.337 940.38 643.424 C 942.802 643.177 943.433 643.18 945.297 644.676 C 945.478 646.967 944.875 648.104 943.796 650.096 C 942.176 650.594 940.547 651.062 938.91 651.5 C 914.651 657.926 913.417 642.864 896.002 633.289 C 889.209 629.555 881.074 628.611 874.393 624.544 C 867.862 620.568 861.779 614.584 860.016 606.943 C 858.966 602.396 858.489 598.514 860.996 594.394 z"/>
<path transform="translate(0,0)" fill="rgb(246,245,244)" d="M 879.663 569.805 C 876.918 568.352 877.84 569.255 876.396 565.955 C 878.872 548.169 906.711 561.128 902.995 574.975 C 902.457 576.978 901.706 579.323 899.727 580.236 C 898.295 581.467 895.206 585.592 893.883 587.265 C 890.159 582.013 884.525 573.733 879.663 569.805 z"/>
<path transform="translate(0,0)" fill="rgb(62,64,63)" d="M 879.663 569.805 C 891.666 562.921 898.316 565.52 899.727 580.236 C 898.295 581.467 895.206 585.592 893.883 587.265 C 890.159 582.013 884.525 573.733 879.663 569.805 z"/>
<path transform="translate(0,0)" fill="rgb(62,64,63)" d="M 941.304 600.909 C 944.773 589.993 961.831 595.606 965.618 605.119 C 966.894 608.408 966.765 612.077 965.261 615.268 C 962.405 617.25 963.704 616.938 960.411 616.553 C 959.932 615.717 959.403 615.067 959.291 614.228 C 952.938 613.072 942.34 614.098 938.728 609.703 C 938.101 606.296 939.695 604.149 941.304 600.909 z"/>
<path transform="translate(0,0)" fill="rgb(254,244,207)" d="M 941.304 600.909 C 944.773 589.993 961.831 595.606 965.618 605.119 C 966.894 608.408 966.765 612.077 965.261 615.268 C 962.405 617.25 963.704 616.938 960.411 616.553 C 959.932 615.717 959.403 615.067 959.291 614.228 C 958.303 601.225 953.752 598.049 941.304 600.909 z"/>
<path transform="translate(0,0)" fill="rgb(194,124,41)" d="M 892.466 599.23 C 894.733 599.701 896.687 600.361 898.106 602.322 C 900.288 605.336 899.83 608.865 899.15 612.264 C 898.993 612.239 898.834 612.224 898.679 612.189 C 896.534 611.717 894.219 610.826 893.033 608.868 C 891.219 605.871 891.839 602.449 892.466 599.23 z"/>
<path transform="translate(0,0)" fill="rgb(218,153,41)" d="M 916.504 615.855 C 919.569 615.909 922.415 615.602 924.968 617.534 C 925.618 620.199 925.296 620.532 924.195 623.093 C 921.064 623.176 917.788 623.591 914.985 621.946 C 914.261 619.068 915.195 618.306 916.504 615.855 z"/>
<path transform="translate(0,0)" fill="rgb(194,124,41)" d="M 784.181 637.824 C 808.821 620.225 822.374 607.283 843.718 586.038 C 840.025 633.68 881.539 669.853 925.357 668.429 C 928.245 668.335 933.168 668.159 935.768 668.465 C 920.167 677.287 906.777 689.117 891.095 697.072 C 886.589 698.464 874.389 702.445 870.831 705.303 C 853.465 711.82 836.954 719.829 819.656 726.21 C 823.103 719.983 866.37 687.729 874.607 681.414 C 872.802 680.393 871.008 679.352 869.226 678.292 C 847.854 665.542 843.318 652.501 837.614 629.872 C 813.64 654.311 769.332 679.455 746.365 702.265 C 740.075 692.898 737.953 691.214 729.011 684.973 C 731.363 679.991 734.132 675.059 736.764 670.205 C 743.31 666.834 752.366 658.369 755.218 657.642 C 767.047 651.513 773.732 646.214 784.181 637.824 z"/>
<path transform="translate(0,0)" fill="rgb(29,96,152)" d="M 676.436 345.259 C 672.616 331.57 673.406 317.915 681.287 305.481 C 702.453 272.082 709.913 256.488 749.313 281.613 C 771.799 295.952 805.59 272.359 813.696 313.625 C 819.955 345.492 826.794 361.152 797.144 384.325 C 778.243 434.07 751.253 502.011 722.244 546.529 L 717.992 549.934 L 708.194 543.089 C 705.303 541.394 701.484 539.515 698.454 537.912 C 700.779 507.73 699.272 476.636 667.017 463.696 L 660.169 460.735 C 659.712 448.074 655.503 436.208 654.975 425.961 C 654.777 422.105 663.105 395.908 664.79 389.872 C 668.763 375.644 672.248 359.207 676.436 345.259 z"/>
<path transform="translate(0,0)" fill="rgb(66,174,220)" d="M 676.436 345.259 C 672.616 331.57 673.406 317.915 681.287 305.481 C 702.453 272.082 709.913 256.488 749.313 281.613 C 771.799 295.952 805.59 272.359 813.696 313.625 C 819.955 345.492 826.794 361.152 797.144 384.325 C 745.537 404.199 704.885 395.123 676.436 345.259 z"/>
<path transform="translate(0,0)" fill="rgb(29,96,152)" d="M 695.89 334.366 C 699.185 336.129 701.403 341.002 703.604 344.002 C 706.667 348.175 709.548 351.636 714.51 353.504 C 723.869 357.026 733.961 353.302 743.552 355.599 C 753.451 357.97 760.055 367.463 771.06 367.318 C 777.432 367.234 787.346 358.798 792.629 360.042 C 793.934 360.35 794.002 361.004 794.723 362.051 C 794.583 365.073 794.682 365.215 792.607 367.381 C 787.265 370.596 781.773 373.471 775.622 374.779 C 762.521 377.564 752.956 367.232 740.893 364.081 C 729.072 360.995 716.938 365.019 706.089 357.58 C 701.092 354.154 693.588 346.121 692.503 339.99 C 693.196 337.022 693.723 336.568 695.89 334.366 z"/>
<path transform="translate(0,0)" fill="rgb(246,245,244)" d="M 705.749 305.734 C 703.848 305.953 703.255 306.07 701.459 305.129 C 700.605 301.921 700.395 302.145 701.95 298.85 C 710.243 281.271 731.638 294.935 728.615 310.215 L 728.04 309.662 C 723.816 325.166 715.361 312.467 705.749 305.734 z"/>
<path transform="translate(0,0)" fill="rgb(46,61,71)" d="M 705.749 305.734 C 715.2 295.9 721.872 298.114 728.04 309.662 C 723.816 325.166 715.361 312.467 705.749 305.734 z"/>
<path transform="translate(0,0)" fill="rgb(46,61,71)" d="M 779.834 317.998 C 778.834 310.251 797.419 310.864 801.294 316.194 C 804.224 320.224 806.728 324.201 803.993 328.899 C 801.944 329.204 800.898 329.41 798.837 329.349 C 794.116 329.504 779.038 331.885 777.26 331.044 C 775.037 325.557 777.958 323.001 779.463 319.003 L 779.834 317.998 z"/>
<path transform="translate(0,0)" fill="rgb(246,245,244)" d="M 779.834 317.998 C 778.834 310.251 797.419 310.864 801.294 316.194 C 804.224 320.224 806.728 324.201 803.993 328.899 C 801.944 329.204 800.898 329.41 798.837 329.349 C 794.984 318.91 791.814 313.928 779.834 317.998 z"/>
<path transform="translate(0,0)" fill="rgb(29,96,152)" d="M 759.15 339.602 C 760.244 339.665 761.459 339.696 762.516 339.997 C 764.91 340.678 765.528 341.443 766.637 343.466 C 765.775 346.182 764.665 346.784 762.531 348.557 C 761.222 348.717 759.928 348.89 758.612 348.703 C 756.572 348.413 756.57 348.291 755.341 346.589 C 755.596 343.521 757.261 341.842 759.15 339.602 z"/>
<path transform="translate(0,0)" fill="rgb(29,96,152)" d="M 726.812 331.582 C 729.096 331.746 731.985 331.921 733.877 333.324 C 736.993 335.633 737.011 339.663 737.345 343.178 C 734.636 342.636 731.98 342.155 729.869 340.21 C 727.259 337.806 726.956 334.894 726.812 331.582 z"/>
<path transform="translate(0,0)" fill="rgb(66,174,220)" d="M 691.015 393.296 C 705.489 409.93 718.171 418.693 741.26 420.325 C 747.142 420.785 753.057 420.568 758.889 419.68 C 744.585 457.508 730.404 495.145 713.501 531.9 C 711.831 535.533 710.217 539.672 708.194 543.089 C 705.303 541.394 701.484 539.515 698.454 537.912 C 700.779 507.73 699.272 476.636 667.017 463.696 C 670.821 451.758 675.246 440.452 679.423 428.662 C 683.505 417.145 686.69 404.647 691.015 393.296 z"/>
<path transform="translate(0,0)" fill="rgb(218,153,41)" d="M 216.726 668.295 C 179.1 658.2 179.998 635.07 175.739 602.167 C 171.451 569.032 204.691 573.566 220.129 561.539 C 245.466 541.799 247.651 522.353 280.178 550.464 C 293.487 562.163 303.102 568.437 309.08 585.957 C 325.943 600.584 351.882 628.954 371.76 639.876 C 376.328 644.104 395.077 656.922 400.978 659.201 C 405.569 662.805 410.506 666.928 415.501 669.852 C 418.699 675.385 420.634 679.015 423.321 684.88 C 414.711 691.006 412.404 693.218 406.578 702.305 C 393.139 733.741 407.893 748.695 413.729 779.908 C 381.159 750.345 369.096 749.033 336.131 727.599 C 317.898 720.381 300.819 712.345 281.926 705.398 C 278.222 703.148 269.101 699.773 264.734 698.019 C 254.287 693.412 247.466 688.825 238.237 682.241 C 230.856 677.164 224.459 672.781 216.726 668.295 z"/>
<path transform="translate(0,0)" fill="rgb(249,203,108)" d="M 216.726 668.295 C 179.1 658.2 179.998 635.07 175.739 602.167 C 171.451 569.032 204.691 573.566 220.129 561.539 C 245.466 541.799 247.651 522.353 280.178 550.464 C 293.487 562.163 303.102 568.437 309.08 585.957 C 309.831 632.073 279.95 663.201 234.735 668.507 C 238.568 669.988 237.529 668.993 239.278 671.978 C 239.439 676.091 238.952 678.213 238.237 682.241 C 230.856 677.164 224.459 672.781 216.726 668.295 z"/>
<path transform="translate(0,0)" fill="rgb(194,124,41)" d="M 216.726 668.295 C 222.375 668.285 229.741 669.155 234.735 668.507 C 238.568 669.988 237.529 668.993 239.278 671.978 C 239.439 676.091 238.952 678.213 238.237 682.241 C 230.856 677.164 224.459 672.781 216.726 668.295 z"/>
<path transform="translate(0,0)" fill="rgb(194,124,41)" d="M 289.315 594.25 L 292.463 596.066 C 293.883 598.944 294.315 600.795 293.556 603.994 C 292.38 608.954 289.538 613.55 286.369 617.477 C 275.101 631.44 267.71 625.328 255.811 633.188 C 248.909 637.747 244.17 645.218 237.121 649.528 C 228.842 654.59 219.958 652.863 211.027 650.672 C 209.027 649.53 208.014 648.598 206.819 646.624 L 207.431 644.448 C 213.436 641.038 225.461 646.13 232.564 643.636 C 240.722 640.771 245.977 629.399 254.242 624.92 C 262.197 620.608 266.131 622.432 272.893 620.031 C 281.061 617.132 286.152 601.412 289.315 594.25 z"/>
<path transform="translate(0,0)" fill="rgb(246,245,244)" d="M 252.674 578.703 L 251.345 578.3 C 244.849 568.237 259.894 549.424 274.172 560.712 C 275.996 563.632 276.236 564.02 275.939 567.422 C 274.407 570.245 275.307 569.583 272.737 570.431 L 271.871 571.136 C 266.181 575.845 263.286 582.703 259.079 584.45 C 255.294 584.023 254.966 582.003 252.674 578.703 z"/>
<path transform="translate(0,0)" fill="rgb(62,64,63)" d="M 252.674 578.703 C 255.81 565.412 261.09 562.294 272.737 570.431 L 271.871 571.136 C 266.181 575.845 263.286 582.703 259.079 584.45 C 255.294 584.023 254.966 582.003 252.674 578.703 z"/>
<path transform="translate(0,0)" fill="rgb(62,64,63)" d="M 193.754 614.21 C 192.502 616.399 193.029 615.68 190.505 617.003 C 187.589 616.055 188.916 616.657 187.32 614.168 C 179.259 601.592 204.938 587.402 210.073 599.765 C 212.116 602.468 214.411 604.87 214.602 608.219 C 212.012 613.982 199.998 613.662 193.754 614.21 z"/>
<path transform="translate(0,0)" fill="rgb(254,244,207)" d="M 193.754 614.21 C 192.502 616.399 193.029 615.68 190.505 617.003 C 187.589 616.055 188.916 616.657 187.32 614.168 C 179.259 601.592 204.938 587.402 210.073 599.765 C 197.495 598.51 195.341 602.502 193.754 614.21 z"/>
<path transform="translate(0,0)" fill="rgb(194,124,41)" d="M 227.758 615.887 C 230.849 615.85 234.127 615.473 236.861 617.154 C 238.268 619.719 238.032 620.442 237.789 623.41 C 234.638 623.35 231.684 623.387 228.681 622.277 C 226.962 619.656 227.384 618.877 227.758 615.887 z"/>
<path transform="translate(0,0)" fill="rgb(194,124,41)" d="M 256.307 599.315 C 258.44 600.316 259.489 601.08 260.738 603.094 C 261.038 606.35 258.819 608.897 257.088 611.457 C 255.523 611.701 254.754 611.284 253.344 610.689 L 252.518 608.563 C 252.877 605.026 254.585 602.345 256.307 599.315 z"/>
<path transform="translate(0,0)" fill="rgb(194,124,41)" d="M 309.08 585.957 C 325.943 600.584 351.882 628.954 371.76 639.876 C 376.328 644.104 395.077 656.922 400.978 659.201 C 405.569 662.805 410.506 666.928 415.501 669.852 C 418.699 675.385 420.634 679.015 423.321 684.88 C 414.711 691.006 412.404 693.218 406.578 702.305 C 394.182 689.596 383.89 683.629 370 673.141 C 353.325 660.551 330.443 643.896 315.701 629.293 C 310.611 649.991 305.435 665.134 285.751 677.144 C 283.129 678.734 280.429 680.192 277.662 681.512 C 285.336 686.949 334.112 723.133 336.131 727.599 C 317.898 720.381 300.819 712.345 281.926 705.398 C 278.222 703.148 269.101 699.773 264.734 698.019 C 254.287 693.412 247.466 688.825 238.237 682.241 C 238.952 678.213 239.439 676.091 239.278 671.978 C 237.529 668.993 238.568 669.988 234.735 668.507 C 279.95 663.201 309.831 632.073 309.08 585.957 z"/>
<path transform="translate(0,0)" fill="rgb(51,137,96)" d="M 356.47 384.188 C 331.691 367.663 332.517 346.604 338.022 320.675 C 340.137 310.715 342.254 297.957 351.864 291.973 C 363.432 284.77 379.93 289.315 392.886 286.069 C 410.114 282.432 421.643 265.209 438.285 268.374 C 452.166 271.014 461.303 289.137 468.518 299.938 C 477.906 313.994 481.454 326.323 477.565 343.279 C 481.12 364.378 490.538 405.095 499.082 423.931 C 496.113 433.121 492.193 457.841 490.398 460.929 C 489.09 461.594 487.669 462.368 486.332 462.934 C 455.484 477.006 449.309 506.909 454.519 537.731 L 444.873 542.636 C 441.164 545.253 437.173 548.196 433.356 550.591 C 432.325 549.074 431.51 548.409 430.222 547.118 C 428.904 543.062 423.268 532.824 420.932 528.724 C 394.26 481.911 375.402 434.513 356.47 384.188 z"/>
<path transform="translate(0,0)" fill="rgb(142,197,79)" d="M 356.47 384.188 C 331.691 367.663 332.517 346.604 338.022 320.675 C 340.137 310.715 342.254 297.957 351.864 291.973 C 363.432 284.77 379.93 289.315 392.886 286.069 C 410.114 282.432 421.643 265.209 438.285 268.374 C 452.166 271.014 461.303 289.137 468.518 299.938 C 477.906 313.994 481.454 326.323 477.565 343.279 C 468.428 364.002 451.456 380.263 430.361 388.504 C 403.461 399.011 382.101 394.115 356.47 384.188 z"/>
<path transform="translate(0,0)" fill="rgb(51,137,96)" d="M 435.502 354.338 C 447.341 350.893 452.061 335.647 460.288 336.654 L 461.43 338.651 C 460.889 342.312 457.01 348.409 454.729 351.432 C 443.003 366.973 426.476 359.447 411.753 363.898 C 402.534 367.447 395.311 373.472 385.27 375.046 C 376.604 376.404 360.297 371.894 359.373 361.533 C 362.85 356.559 372.776 367.74 381.919 366.861 C 396.202 365.487 401.789 356.929 416.074 354.061 C 422.227 348.138 429.65 347.174 435.502 354.338 z"/>
<path transform="translate(0,0)" fill="rgb(155,205,94)" d="M 416.074 354.061 C 422.227 348.138 429.65 347.174 435.502 354.338 C 429.934 355.203 421.887 354.406 416.074 354.061 z"/>
<path transform="translate(0,0)" fill="rgb(246,245,244)" d="M 424.841 310.696 C 417.635 296.403 444.386 282.103 452.679 299.264 C 453.697 301.369 453.076 301.685 452.418 303.767 C 449.823 305.921 450.766 305.815 448.118 305.748 C 445.344 307.812 431.52 318.229 429.55 318.222 C 426.812 315.464 426.433 314.21 424.841 310.696 z"/>
<path transform="translate(0,0)" fill="rgb(62,64,63)" d="M 424.841 310.696 C 431.427 298.253 437.288 295.025 448.118 305.748 C 445.344 307.812 431.52 318.229 429.55 318.222 C 426.812 315.464 426.433 314.21 424.841 310.696 z"/>
<path transform="translate(0,0)" fill="rgb(62,64,63)" d="M 354.924 328.849 C 353.421 329.19 351.59 329.028 349.989 329.005 C 346.395 326.279 347.94 320.902 350.101 317.593 C 355.545 309.262 373.877 308.762 375.6 320.208 C 376.831 323.57 378.115 326.044 377.214 329.532 C 372.616 334.036 362.399 329.138 354.924 328.849 z"/>
<path transform="translate(0,0)" fill="rgb(246,245,244)" d="M 354.924 328.849 C 353.421 329.19 351.59 329.028 349.989 329.005 C 346.395 326.279 347.94 320.902 350.101 317.593 C 355.545 309.262 373.877 308.762 375.6 320.208 C 364.188 313.478 358.729 316.761 354.924 328.849 z"/>
<path transform="translate(0,0)" fill="rgb(51,137,96)" d="M 422.802 330.515 C 423.629 330.645 424.235 330.771 424.926 331.274 C 426.649 332.529 426.42 333.044 426.735 334.992 C 425.534 338.281 423.161 340.318 420.706 342.698 L 418.121 342.907 L 417.004 341.558 C 416.926 340.365 416.879 339.139 417.097 337.956 C 417.766 334.316 420.018 332.574 422.802 330.515 z"/>
<path transform="translate(0,0)" fill="rgb(57,129,68)" d="M 396.494 341.775 C 397.731 344.031 398.379 346.981 397.25 349.295 C 392.924 350.708 385.399 346.016 386.542 340.611 C 389.347 339.656 390.472 340.143 393.367 340.703 L 396.494 341.775 z"/>
<path transform="translate(0,0)" fill="rgb(155,205,94)" d="M 393.367 340.703 C 397.307 336.501 401.791 335.649 407.088 338.381 L 407.178 339.695 C 402.639 342.229 399.568 340.577 396.494 341.775 L 393.367 340.703 z"/>
<path transform="translate(0,0)" fill="rgb(142,197,79)" d="M 462.596 394.111 C 469.309 417.448 477.232 440.42 486.332 462.934 C 455.484 477.006 449.309 506.909 454.519 537.731 L 444.873 542.636 C 428.749 508.681 406.489 455.325 395.073 420.436 C 426.197 422.26 440.687 416.681 462.596 394.111 z"/>
<path transform="translate(0,0)" fill="rgb(29,125,147)" d="M 891.095 697.072 C 894.612 698.216 901.755 699.977 904.287 701.953 C 912.787 708.701 917.377 718.23 925.319 725.745 C 934.975 734.88 956.371 739.887 962.41 751.848 C 969.21 765.317 961.237 787.514 956.919 801.065 C 945.426 837.13 910.043 835.809 880.66 824.598 C 861.524 817.532 849.531 804.311 840.919 786.107 C 833.739 769.774 830.921 756.075 836.994 738.918 C 843.976 719.196 863.829 714.769 870.831 705.303 C 874.389 702.445 886.589 698.464 891.095 697.072 z"/>
<path transform="translate(0,0)" fill="rgb(21,62,97)" d="M 852.125 751.319 C 857.415 752.688 857.704 766.384 860.293 771.156 C 865.685 781.097 878.533 780.817 886.645 787.41 C 894.177 793.533 897.233 802.125 905.84 807.676 C 911.917 808.398 922.032 806.263 926.783 809.945 C 926.576 812.73 925.657 813.529 924.01 815.691 C 921.867 816.079 919.763 816.289 917.586 816.352 C 894.207 817.024 895.441 803.194 879.216 792.393 C 872.74 788.081 863.735 786.222 858.164 780.84 C 852.931 775.785 848.259 765.811 848.45 758.501 C 848.547 754.811 849.588 753.649 852.125 751.319 z"/>
<path transform="translate(0,0)" fill="rgb(246,245,244)" d="M 872.913 728.831 C 870.024 726.411 870.608 727.599 870.257 724.468 C 874.459 715.665 891.224 715.983 893.307 726.441 C 894.321 731.529 895.071 738.57 890.59 742.27 C 889.517 743.383 888.202 744.333 886.977 745.292 C 881.179 744.373 877.592 735.141 872.913 728.831 z"/>
<path transform="translate(0,0)" fill="rgb(62,64,63)" d="M 872.913 728.831 C 885.703 722.47 892.109 728.54 890.59 742.27 C 889.517 743.383 888.202 744.333 886.977 745.292 C 881.179 744.373 877.592 735.141 872.913 728.831 z"/>
<path transform="translate(0,0)" fill="rgb(46,61,71)" d="M 931.298 766.282 C 946.78 753.426 957.291 778.296 949.783 785.274 C 947.037 785.386 947.837 785.246 945.027 782.715 C 939.112 781.439 928.132 779.49 925.758 773.725 C 926.488 770.319 928.706 768.79 931.298 766.282 z"/>
<path transform="translate(0,0)" fill="rgb(246,245,244)" d="M 931.298 766.282 C 946.78 753.426 957.291 778.296 949.783 785.274 C 947.037 785.386 947.837 785.246 945.027 782.715 C 944.83 770.236 943.95 767.674 931.298 766.282 z"/>
<path transform="translate(0,0)" fill="rgb(21,62,97)" d="M 901.37 779.903 C 904.449 779.964 907.101 780.09 910.083 780.956 C 912.225 783.287 911.947 783.581 911.949 786.799 C 908.744 787.055 905.7 787.41 902.54 786.598 C 900.752 784.102 901.217 782.872 901.37 779.903 z"/>
<path transform="translate(0,0)" fill="rgb(21,62,97)" d="M 882.553 760.43 C 885.126 761.642 886.361 762.528 887.801 765.005 C 888.51 768.233 887.785 770.654 886.952 773.745 C 884.091 772.134 882.48 771.123 881.036 768.033 C 880.646 764.9 881.291 763.186 882.553 760.43 z"/>
<path transform="translate(0,0)" fill="rgb(29,125,147)" d="M 264.734 698.019 C 269.101 699.773 278.222 703.148 281.926 705.398 C 284.92 709.607 299.21 717.637 304.033 721.803 C 329.808 744.071 318.766 783.036 299.514 805.507 C 280.967 827.155 232.197 842.934 208.693 821.255 C 205.318 818.142 201.523 813.927 199.535 809.618 C 194.721 795.291 189.543 779.296 187.319 764.376 C 186.721 742.07 207.824 740.12 221.322 730.512 C 239.561 717.529 239.136 699.005 264.734 698.019 z"/>
<path transform="translate(0,0)" fill="rgb(21,62,97)" d="M 297.776 751.145 C 299.916 751.44 300.999 751.829 302.75 753.11 C 303.381 754.237 303.811 755.1 303.829 756.424 C 304.183 783.447 288.595 780.858 272.292 792.936 C 265.941 797.641 261.784 804.27 256.117 809.595 C 248.938 816.339 239.765 816.083 230.591 815.96 C 228.358 815.309 227.146 814.659 225.533 812.954 C 224.816 812.197 225.122 811.533 225.139 810.532 C 229.794 805.825 242.812 808.972 248.955 806.156 C 256.508 802.695 259.832 792.106 266.417 787.106 C 272.404 782.56 280.437 781.335 286.658 777.218 C 295.467 771.389 295.736 760.55 297.776 751.145 z"/>
<path transform="translate(0,0)" fill="rgb(246,245,244)" d="M 263.54 743.686 C 256.95 741.223 257.263 731.237 259.143 725.702 C 262.499 715.816 279.018 715.824 282.885 725.392 C 281.668 728.55 282.556 727.456 279.14 729.325 C 274.65 735.476 271.536 744.726 266.328 746.066 L 263.54 743.686 z"/>
<path transform="translate(0,0)" fill="rgb(62,64,63)" d="M 263.54 743.686 C 259.973 731.16 266.374 721.098 279.14 729.325 C 274.65 735.476 271.536 744.726 266.328 746.066 L 263.54 743.686 z"/>
<path transform="translate(0,0)" fill="rgb(46,61,71)" d="M 207.952 781.939 C 205.86 785.085 206.987 784.292 203.839 785.355 L 201.941 784.353 C 195.367 773.879 210.326 751.919 223.879 767.798 C 226.447 770.105 226.967 770.444 227.793 773.75 C 225.42 777.964 213.069 780.702 207.952 781.939 z"/>
<path transform="translate(0,0)" fill="rgb(246,245,244)" d="M 207.952 781.939 C 205.86 785.085 206.987 784.292 203.839 785.355 L 201.941 784.353 C 195.367 773.879 210.326 751.919 223.879 767.798 C 212.344 765.64 205.838 769.478 207.952 781.939 z"/>
<path transform="translate(0,0)" fill="rgb(21,62,97)" d="M 241.375 779.962 C 244.348 779.869 246.988 779.804 249.907 780.548 C 252.034 782.856 251.828 783.861 252.1 786.88 C 248.898 787.161 245.689 787.742 242.588 786.704 C 240.91 784.164 241.275 782.917 241.375 779.962 z"/>
<path transform="translate(0,0)" fill="rgb(21,62,97)" d="M 266.759 760.278 C 269.8 761.316 270.328 761.184 271.936 763.901 C 272.03 767.276 270.698 769.63 269.229 772.547 L 267.277 772.686 C 266.532 772.322 265.599 772.141 265.25 771.361 C 263.593 767.656 265.341 763.764 266.759 760.278 z"/>
<path transform="translate(0,0)" fill="rgb(29,125,147)" d="M 331.803 757.277 C 337.372 758.763 343.356 762.893 348.347 765.766 C 374.796 780.987 396.145 798.106 416.859 820.612 C 415.76 843.4 414.256 856.337 438.204 866.28 C 440.112 867.073 442.23 867.409 443.193 869.276 C 437.3 874.828 419.352 877.722 411.351 880.311 C 399.24 883.834 387.639 888.919 376.84 895.436 C 362.632 864.264 342.736 839.871 312.888 822.544 C 314.782 820.827 316.707 819.069 318.356 817.113 C 332.871 799.898 333.694 778.481 331.803 757.277 z"/>
<path transform="translate(0,0)" fill="rgb(29,125,147)" d="M 819.848 757.134 C 822.779 761.387 819.393 781.797 821.074 789.161 C 824.065 802.262 831.658 813.131 839.744 823.556 C 809.397 839.545 790.13 864.61 776.031 895.35 C 765.36 889.09 753.86 884.716 742.296 880.42 C 736.55 878.264 711.563 872.8 709.334 869.325 C 716.243 866.733 723.274 863.9 728.322 858.298 C 737.858 847.718 737.023 834.745 736.375 821.537 C 756.079 792.344 790.475 774.826 819.848 757.134 z"/>
</svg>